<svg version="1.1" xmlns="http://www.w3.org/2000/svg" xmlns:xlink="http://www.w3.org/1999/xlink" width="440" height="310">
  <defs>
    <clipPath id="WULvBRyTaoru">
      <path fill="none" stroke="none" d=" M 0 0 L 2474 0 L 2474 1414 L 0 1414 L 0 0 Z" />
    </clipPath>
  </defs>
  <g transform="scale(1,1)" clip-path="url(#WULvBRyTaoru)">
    <g>
      <path fill="rgb(241,194,50)" stroke="none" paint-order="stroke fill markers" fill-rule="evenodd" d=" M 92.68873853696937 238.02159171592658 L 92.68873853696937 80.43116167142239 L 329.074383603726 80.43116167142239 L 329.074383603726 238.02159171592658 Z" fill-opacity="0.6274509803921569" />
      <path fill="rgb(0,103,88)" stroke="none" paint-order="stroke fill markers" fill-rule="evenodd" d=" M 92.68873853696937 238.02159171592658 L 92.68873853696937 41.03355416029635 L 329.074383603726 41.03355416029635 L 329.074383603726 238.02159171592658 Z" fill-opacity="0.09803921568627451" />
      <path fill="none" stroke="rgb(224,116,21)" paint-order="fill stroke markers" d=" M 250.27916858147378 238.02159171592658 C 250.27916858147378 150.98680048307045 179.72352976982563 80.43116167142239 92.68873853696938 80.43116167142239 L 92.68873853696937 238.02159171592658 Z" stroke-opacity="0.8" stroke-linejoin="round" stroke-miterlimit="10" stroke-width="2.5" stroke-dasharray="10.5,8" />
      <path fill="none" stroke="rgb(56,140,131)" paint-order="fill stroke markers" d=" M 250.27916858147378 119.82876918254843 C 213.07711448754554 70.22603039064418 154.6921620268498 41.03355416029635 92.68873853696938 41.03355416029635 L 92.68873853696937 238.02159171592658 Z" stroke-opacity="0.8" stroke-linejoin="round" stroke-miterlimit="10" stroke-width="2.5" stroke-dasharray="10.5,8" />
      <path fill="rgb(0,0,0)" stroke="none" paint-order="stroke fill markers" fill-rule="evenodd" d=" M 250.2791685814738 238.02159171592658 L 250.2791685814738 216.8083882803316 L 229.0659651458774 216.80838828033015 L 229.0659651458788 238.02159171592658 L 250.2791685814738 238.02159171592658" fill-opacity="0.09803921568627451" />
      <path fill="none" stroke="rgb(0,0,0)" paint-order="fill stroke markers" d=" M 250.2791685814738 238.02159171592658 L 250.2791685814738 216.8083882803316 L 229.0659651458774 216.80838828033015 L 229.0659651458788 238.02159171592658 L 250.2791685814738 238.02159171592658" stroke-opacity="0.6" stroke-linecap="round" stroke-linejoin="round" stroke-miterlimit="10" stroke-width="2" />
      <path fill="rgb(0,0,0)" stroke="none" paint-order="stroke fill markers" d=" M 122.68873853696937 238.02159171592658 C 122.68873853696937 231.53048530919142 120.5834023810105 225.21447684131473 116.68873853696937 220.0215917159266 L 92.68873853696937 238.02159171592658 Z" fill-opacity="0.09803921568627451" />
      <path fill="none" stroke="rgb(0,0,0)" paint-order="fill stroke markers" d=" M 122.68873853696937 238.02159171592658 C 122.68873853696937 231.53048530919142 120.5834023810105 225.21447684131473 116.68873853696937 220.0215917159266 L 92.68873853696937 238.02159171592658 Z" stroke-opacity="0.6" stroke-linecap="round" stroke-linejoin="round" stroke-miterlimit="10" stroke-width="2" />
      <g transform="scale(19,19)">
        <g transform="translate(6.7894736842105265,12.115052631578948)">
          <path fill="rgb(0,0,0)" stroke="none" paint-order="stroke fill markers" d=" M 0.455 -0.5 L 0.455 -0.5 Q 0.455 -0.34700000000000003 0.377 -0.19 Q 0.307 -0.05 0.222 -0.005 Q 0.191 0.011 0.162 0.011 Q 0.08 0.011 0.052000000000000005 -0.101 Q 0.042 -0.14300000000000002 0.042 -0.194 Q 0.042 -0.35100000000000003 0.122 -0.509 Q 0.192 -0.646 0.277 -0.6900000000000001 Q 0.307 -0.705 0.335 -0.705 Q 0.422 -0.705 0.447 -0.578 Q 0.455 -0.54 0.455 -0.5 M 0.148 -0.363 L 0.148 -0.363 L 0.357 -0.363 Q 0.389 -0.495 0.389 -0.562 Q 0.389 -0.675 0.342 -0.682 Q 0.338 -0.683 0.334 -0.683 Q 0.28300000000000003 -0.683 0.225 -0.578 Q 0.187 -0.511 0.149 -0.368 Q 0.149 -0.365 0.148 -0.363 M 0.34800000000000003 -0.331 L 0.14 -0.331 Q 0.108 -0.21 0.108 -0.133 Q 0.108 -0.013000000000000001 0.162 -0.011 Q 0.218 -0.011 0.278 -0.128 Q 0.317 -0.202 0.34800000000000003 -0.331 Z" />
        </g>
      </g>
      <path fill="none" stroke="rgb(241,194,50)" paint-order="fill stroke markers" d=" M 92.68873853696937 238.02159171592658 L 92.68873853696937 80.43116167142239" stroke-opacity="0" stroke-linecap="round" stroke-linejoin="round" stroke-miterlimit="10" stroke-width="2.5" />
      <path fill="none" stroke="rgb(241,194,50)" paint-order="fill stroke markers" d=" M 92.68873853696937 80.43116167142239 L 329.074383603726 80.43116167142239" stroke-opacity="0" stroke-linecap="round" stroke-linejoin="round" stroke-miterlimit="10" stroke-width="2.5" />
      <path fill="none" stroke="rgb(241,194,50)" paint-order="fill stroke markers" d=" M 329.074383603726 80.43116167142239 L 329.074383603726 238.02159171592658" stroke-opacity="0" stroke-linecap="round" stroke-linejoin="round" stroke-miterlimit="10" stroke-width="2.5" />
      <path fill="none" stroke="rgb(241,194,50)" paint-order="fill stroke markers" d=" M 329.074383603726 238.02159171592658 L 92.68873853696937 238.02159171592658" stroke-opacity="0" stroke-linecap="round" stroke-linejoin="round" stroke-miterlimit="10" stroke-width="2.5" />
      <path fill="none" stroke="rgb(0,103,88)" paint-order="fill stroke markers" d=" M 92.68873853696937 238.02159171592658 L 92.68873853696937 41.03355416029635" stroke-opacity="0" stroke-linecap="round" stroke-linejoin="round" stroke-miterlimit="10" stroke-width="2.5" />
      <path fill="none" stroke="rgb(0,103,88)" paint-order="fill stroke markers" d=" M 92.68873853696937 41.03355416029635 L 329.074383603726 41.03355416029635" stroke-opacity="0" stroke-linecap="round" stroke-linejoin="round" stroke-miterlimit="10" stroke-width="2.5" />
      <path fill="none" stroke="rgb(0,103,88)" paint-order="fill stroke markers" d=" M 329.074383603726 41.03355416029635 L 329.074383603726 238.02159171592658" stroke-opacity="0" stroke-linecap="round" stroke-linejoin="round" stroke-miterlimit="10" stroke-width="2.5" />
      <path fill="none" stroke="rgb(0,103,88)" paint-order="fill stroke markers" d=" M 329.074383603726 238.02159171592658 L 92.68873853696937 238.02159171592658" stroke-opacity="0" stroke-linecap="round" stroke-linejoin="round" stroke-miterlimit="10" stroke-width="2.5" />
      <path fill="none" stroke="rgb(110,109,115)" paint-order="fill stroke markers" d=" M 250.2791685814738 119.82876918254844 L 250.2791685814738 238.02159171592658" stroke-opacity="0.8" stroke-linejoin="round" stroke-miterlimit="10" stroke-width="2.5" stroke-dasharray="10.5,8" />
      <g transform="scale(19,19)">
        <g transform="translate(19,8.75)">
          <path fill="rgb(110,109,115)" stroke="none" paint-order="stroke fill markers" d=" M 0.17200000000000001 -0.718 L 0.17200000000000001 0.218 Q 0.17200000000000001 0.248 0.152 0.25 Q 0.132 0.25 0.132 0.214 L 0.132 -0.714 Q 0.132 -0.749 0.152 -0.75 Q 0.17200000000000001 -0.75 0.17200000000000001 -0.718 M 0.367 -0.714 L 0.367 0.214 Q 0.367 0.249 0.34700000000000003 0.25 Q 0.327 0.25 0.327 0.218 L 0.327 -0.718 Q 0.327 -0.748 0.34700000000000003 -0.75 Q 0.367 -0.75 0.367 -0.714 Z" />
        </g>
        <g transform="translate(19.5,8.75)">
          <path fill="rgb(110,109,115)" stroke="none" paint-order="stroke fill markers" d=" M 0.438 -0.07200000000000001 Q 0.392 0.006 0.294 0.006 Q 0.209 0.006 0.1615 -0.021500000000000002 Q 0.114 -0.049 0.114 -0.123 L 0.114 -0.356 Q 0.114 -0.384 0.10350000000000001 -0.3895 Q 0.093 -0.395 0.045 -0.395 L 0.045 -0.442 L 0.228 -0.45 L 0.228 -0.109 Q 0.228 -0.063 0.241 -0.0465 Q 0.254 -0.03 0.308 -0.03 Q 0.363 -0.03 0.3975 -0.067 Q 0.432 -0.10400000000000001 0.432 -0.165 L 0.432 -0.356 Q 0.432 -0.384 0.4215 -0.3895 Q 0.41100000000000003 -0.395 0.363 -0.395 L 0.363 -0.442 L 0.546 -0.45 L 0.546 -0.08600000000000001 Q 0.546 -0.058 0.5565 -0.0525 Q 0.5670000000000001 -0.047 0.615 -0.047 L 0.615 0 L 0.438 0.006 L 0.438 -0.07200000000000001 Z" />
        </g>
        <g transform="translate(20.139,8.75)">
          <path fill="rgb(110,109,115)" stroke="none" paint-order="stroke fill markers" d=" M 0.17200000000000001 -0.718 L 0.17200000000000001 0.218 Q 0.17200000000000001 0.248 0.152 0.25 Q 0.132 0.25 0.132 0.214 L 0.132 -0.714 Q 0.132 -0.749 0.152 -0.75 Q 0.17200000000000001 -0.75 0.17200000000000001 -0.718 M 0.367 -0.714 L 0.367 0.214 Q 0.367 0.249 0.34700000000000003 0.25 Q 0.327 0.25 0.327 0.218 L 0.327 -0.718 Q 0.327 -0.748 0.34700000000000003 -0.75 Q 0.367 -0.75 0.367 -0.714 Z" />
        </g>
        <g transform="translate(20.805666666666667,8.75)">
          <path fill="rgb(110,109,115)" stroke="none" paint-order="stroke fill markers" d=" M 0.359 -0.386 Q 0.323 -0.423 0.252 -0.423 Q 0.189 -0.423 0.151 -0.363 Q 0.117 -0.309 0.117 -0.218 Q 0.117 -0.074 0.203 -0.029 Q 0.23 -0.014 0.258 -0.014 Q 0.356 -0.014 0.389 -0.11900000000000001 Q 0.392 -0.129 0.402 -0.129 Q 0.41500000000000004 -0.129 0.41500000000000004 -0.11900000000000001 Q 0.41500000000000004 -0.1 0.393 -0.065 Q 0.34400000000000003 0.011 0.249 0.011 Q 0.155 0.011 0.09 -0.063 Q 0.034 -0.128 0.034 -0.216 Q 0.034 -0.319 0.105 -0.388 Q 0.166 -0.448 0.251 -0.448 Q 0.334 -0.448 0.378 -0.403 Q 0.404 -0.376 0.404 -0.341 Q 0.404 -0.303 0.371 -0.295 Q 0.365 -0.294 0.358 -0.294 Q 0.323 -0.294 0.314 -0.326 Q 0.312 -0.332 0.312 -0.34 Q 0.312 -0.376 0.34700000000000003 -0.384 Q 0.353 -0.386 0.359 -0.386 Z" />
        </g>
        <g transform="translate(21.249666666666666,8.75)">
          <path fill="rgb(110,109,115)" stroke="none" paint-order="stroke fill markers" d=" M 0.47100000000000003 -0.214 L 0.47100000000000003 -0.214 Q 0.47100000000000003 -0.111 0.395 -0.044 Q 0.332 0.011 0.249 0.011 Q 0.153 0.011 0.08700000000000001 -0.061 Q 0.028 -0.126 0.028 -0.214 Q 0.028 -0.316 0.101 -0.386 Q 0.164 -0.448 0.25 -0.448 Q 0.34700000000000003 -0.448 0.41300000000000003 -0.371 Q 0.47100000000000003 -0.304 0.47100000000000003 -0.214 M 0.25 -0.014 L 0.25 -0.014 Q 0.317 -0.014 0.356 -0.07 L 0.366 -0.088 Q 0.388 -0.132 0.388 -0.222 Q 0.388 -0.318 0.362 -0.361 Q 0.319 -0.423 0.249 -0.426 Q 0.187 -0.426 0.147 -0.376 Q 0.14 -0.368 0.135 -0.359 Q 0.111 -0.315 0.111 -0.222 Q 0.111 -0.125 0.136 -0.081 Q 0.178 -0.016 0.25 -0.014 Z" />
        </g>
        <g transform="translate(21.749666666666666,8.75)">
          <path fill="rgb(110,109,115)" stroke="none" paint-order="stroke fill markers" d=" M 0.20800000000000002 -0.194 L 0.20800000000000002 -0.194 Q 0.122 -0.211 0.095 -0.227 Q 0.085 -0.232 0.076 -0.24 Q 0.033 -0.275 0.033 -0.325 Q 0.033 -0.395 0.095 -0.427 Q 0.134 -0.448 0.193 -0.448 Q 0.249 -0.448 0.28700000000000003 -0.42 Q 0.298 -0.429 0.304 -0.436 Q 0.317 -0.448 0.324 -0.448 Q 0.334 -0.439 0.335 -0.424 L 0.335 -0.323 Q 0.335 -0.302 0.329 -0.3 L 0.328 -0.3 L 0.327 -0.299 L 0.322 -0.299 Q 0.311 -0.299 0.31 -0.308 Q 0.303 -0.40900000000000003 0.227 -0.426 Q 0.211 -0.429 0.193 -0.429 Q 0.099 -0.429 0.083 -0.371 Q 0.081 -0.362 0.081 -0.353 Q 0.081 -0.302 0.158 -0.281 Q 0.17300000000000001 -0.277 0.20400000000000001 -0.271 Q 0.276 -0.257 0.307 -0.232 Q 0.313 -0.228 0.318 -0.223 Q 0.36 -0.181 0.36 -0.128 Q 0.36 -0.043000000000000003 0.29 -0.008 Q 0.252 0.011 0.199 0.011 Q 0.134 0.011 0.089 -0.032 L 0.069 -0.009000000000000001 Q 0.049 0.011 0.044 0.011 Q 0.034 0.002 0.033 -0.013000000000000001 L 0.033 -0.145 Q 0.033 -0.167 0.04 -0.169 L 0.04 -0.169 L 0.041 -0.17 L 0.046 -0.17 Q 0.056 -0.17 0.059000000000000004 -0.159 Q 0.059000000000000004 -0.157 0.06 -0.153 Q 0.08600000000000001 -0.037 0.159 -0.016 Q 0.177 -0.011 0.199 -0.011 Q 0.289 -0.011 0.308 -0.074 Q 0.312 -0.08700000000000001 0.312 -0.10200000000000001 Q 0.312 -0.17500000000000002 0.20800000000000002 -0.194 Z" />
        </g>
        <g transform="translate(22.310333333333336,8.75)">
          <path fill="rgb(110,109,115)" stroke="none" paint-order="stroke fill markers" d=" M 0.455 -0.5 L 0.455 -0.5 Q 0.455 -0.34700000000000003 0.377 -0.19 Q 0.307 -0.05 0.222 -0.005 Q 0.191 0.011 0.162 0.011 Q 0.08 0.011 0.052000000000000005 -0.101 Q 0.042 -0.14300000000000002 0.042 -0.194 Q 0.042 -0.35100000000000003 0.122 -0.509 Q 0.192 -0.646 0.277 -0.6900000000000001 Q 0.307 -0.705 0.335 -0.705 Q 0.422 -0.705 0.447 -0.578 Q 0.455 -0.54 0.455 -0.5 M 0.148 -0.363 L 0.148 -0.363 L 0.357 -0.363 Q 0.389 -0.495 0.389 -0.562 Q 0.389 -0.675 0.342 -0.682 Q 0.338 -0.683 0.334 -0.683 Q 0.28300000000000003 -0.683 0.225 -0.578 Q 0.187 -0.511 0.149 -0.368 Q 0.149 -0.365 0.148 -0.363 M 0.34800000000000003 -0.331 L 0.14 -0.331 Q 0.108 -0.21 0.108 -0.133 Q 0.108 -0.013000000000000001 0.162 -0.011 Q 0.218 -0.011 0.278 -0.128 Q 0.317 -0.202 0.34800000000000003 -0.331 Z" />
        </g>
      </g>
      <path fill="rgb(110,109,115)" stroke="none" paint-order="stroke fill markers" d=" M 348.77318735928907 79.18116167142239 C 348.7731868129855 79.18116167142239 348.773186266682 79.18116167142274 348.7731857203786 79.18116167142344 L 348.7731857549133 79.18116167142344 C 348.7731862897052 79.18116167142276 348.77318682449715 79.18116167142242 348.77318735928907 79.18116167142242 C 348.773187894081 79.18116167142242 348.7731884288729 79.18116167142276 348.77318896366484 79.18116167142344 L 348.77318899819954 79.18116167142344 C 348.77318845189615 79.18116167142274 348.77318790559264 79.18116167142239 348.77318735928907 79.18116167142239 Z M 348.7731843891484 79.18116167142584 C 348.603701932616 79.18116206549858 348.44209756594626 79.21489237612883 348.29471793701146 79.27600595544432 L 348.2947179595044 79.27600595544432 C 348.44754168784954 79.21277681271873 348.6103630258946 79.18116205137923 348.7731844240169 79.18116167142584 Z M 348.7731903428818 79.18116167142595 L 348.77319034288183 79.18116167142595 C 348.9360117248972 79.18116205763413 349.09883304584645 79.21277681897357 349.25165675907374 79.27600595544432 L 349.2516567815667 79.27600595544432 C 349.10427716673075 79.21489238197519 348.94267281688155 79.18116207195214 348.7731903780698 79.18116167142595 Z M 348.77318735928907 82.19892862438871 L 347.52318735928907 83.44892862438871 L 347.52318735928907 235.00382476296014 L 348.77318735928907 236.25382476296014 L 350.02318735928907 235.00382476296014 L 350.02318735928907 83.44892862438871 L 348.77318735928907 82.19892862438871 Z M 349.2515794889745 239.17677939851492 C 349.0987772296011 239.23998761012265 348.93598229444507 239.27159171592655 348.77318735928907 239.27159171592655 C 348.6104537066224 239.27159171592655 348.4477200539557 239.24001139972933 348.29496779639726 239.1768507673349 L 348.29496721408896 239.1768507673349 C 348.4422806440402 239.2378993894224 348.6037993694138 239.27159171592658 348.77318735928907 239.27159171592658 C 348.9426413452527 239.27159171592658 349.1042199335545 239.23787313024164 349.25157968455113 239.17677939851492 Z" fill-opacity="0.8" />
      <path fill="rgb(110,109,115)" stroke="none" paint-order="stroke fill markers" d=" M 349.6570708357723 238.9054751924097 L 354.6570708357723 233.9054751924097 C 355.14522620046137 233.41731982772063 355.1452262004613 232.6258636041324 354.65707083577223 232.13770823944333 C 354.16891547108315 231.64955287475425 353.3774592474949 231.6495528747543 352.88930388280585 232.13770823944338 L 347.88930388280585 237.13770823944338 C 347.40114851811677 237.62586360413246 347.4011485181168 238.4173198277207 347.8893038828059 238.90547519240977 C 348.377459247495 239.39363055709885 349.1689154710832 239.3936305570988 349.6570708357723 238.9054751924097 Z M 342.88930388280585 233.9054751924097 L 347.88930388280585 238.9054751924097 C 348.3774592474949 239.3936305570988 349.16891547108315 239.39363055709885 349.65707083577223 238.90547519240977 C 350.1452262004613 238.4173198277207 350.14522620046137 237.62586360413246 349.6570708357723 237.13770823944338 L 344.6570708357723 232.13770823944338 C 344.1689154710832 231.6495528747543 343.377459247495 231.64955287475425 342.8893038828059 232.13770823944333 C 342.4011485181168 232.6258636041324 342.40114851811677 233.41731982772063 342.88930388280585 233.9054751924097 Z" fill-opacity="0.8" />
      <path fill="rgb(110,109,115)" stroke="none" paint-order="stroke fill markers" d=" M 347.8893038828059 81.31504514790555 L 352.8893038828059 86.31504514790555 C 353.377459247495 86.80320051259463 354.16891547108315 86.80320051259463 354.65707083577223 86.31504514790555 C 355.1452262004613 85.82688978321647 355.1452262004613 85.0354335596283 354.65707083577223 84.54727819493922 L 349.65707083577223 79.54727819493922 C 349.16891547108315 79.05912283025015 348.377459247495 79.05912283025015 347.8893038828059 79.54727819493922 C 347.4011485181168 80.0354335596283 347.4011485181168 80.82688978321647 347.8893038828059 81.31504514790555 Z M 344.65707083577223 86.31504514790555 L 349.65707083577223 81.31504514790555 C 350.1452262004613 80.82688978321647 350.1452262004613 80.0354335596283 349.65707083577223 79.54727819493922 C 349.16891547108315 79.05912283025015 348.377459247495 79.05912283025015 347.8893038828059 79.54727819493922 L 342.8893038828059 84.54727819493922 C 342.4011485181168 85.0354335596283 342.4011485181168 85.82688978321647 342.8893038828059 86.31504514790555 C 343.377459247495 86.80320051259463 344.16891547108315 86.80320051259463 344.65707083577223 86.31504514790555 Z" fill-opacity="0.8" />
      <g transform="scale(19,19)">
        <g transform="translate(1.368421052631579,8.06578947368421)">
          <path fill="rgb(110,109,115)" stroke="none" paint-order="stroke fill markers" d=" M 0.17200000000000001 -0.718 L 0.17200000000000001 0.218 Q 0.17200000000000001 0.248 0.152 0.25 Q 0.132 0.25 0.132 0.214 L 0.132 -0.714 Q 0.132 -0.749 0.152 -0.75 Q 0.17200000000000001 -0.75 0.17200000000000001 -0.718 M 0.367 -0.714 L 0.367 0.214 Q 0.367 0.249 0.34700000000000003 0.25 Q 0.327 0.25 0.327 0.218 L 0.327 -0.718 Q 0.327 -0.748 0.34700000000000003 -0.75 Q 0.367 -0.75 0.367 -0.714 Z" />
        </g>
        <g transform="translate(1.868421052631579,8.06578947368421)">
          <path fill="rgb(110,109,115)" stroke="none" paint-order="stroke fill markers" d=" M 0.438 -0.07200000000000001 Q 0.392 0.006 0.294 0.006 Q 0.209 0.006 0.1615 -0.021500000000000002 Q 0.114 -0.049 0.114 -0.123 L 0.114 -0.356 Q 0.114 -0.384 0.10350000000000001 -0.3895 Q 0.093 -0.395 0.045 -0.395 L 0.045 -0.442 L 0.228 -0.45 L 0.228 -0.109 Q 0.228 -0.063 0.241 -0.0465 Q 0.254 -0.03 0.308 -0.03 Q 0.363 -0.03 0.3975 -0.067 Q 0.432 -0.10400000000000001 0.432 -0.165 L 0.432 -0.356 Q 0.432 -0.384 0.4215 -0.3895 Q 0.41100000000000003 -0.395 0.363 -0.395 L 0.363 -0.442 L 0.546 -0.45 L 0.546 -0.08600000000000001 Q 0.546 -0.058 0.5565 -0.0525 Q 0.5670000000000001 -0.047 0.615 -0.047 L 0.615 0 L 0.438 0.006 L 0.438 -0.07200000000000001 Z" />
        </g>
        <g transform="translate(2.507421052631579,8.06578947368421)">
          <path fill="rgb(110,109,115)" stroke="none" paint-order="stroke fill markers" d=" M 0.17200000000000001 -0.718 L 0.17200000000000001 0.218 Q 0.17200000000000001 0.248 0.152 0.25 Q 0.132 0.25 0.132 0.214 L 0.132 -0.714 Q 0.132 -0.749 0.152 -0.75 Q 0.17200000000000001 -0.75 0.17200000000000001 -0.718 M 0.367 -0.714 L 0.367 0.214 Q 0.367 0.249 0.34700000000000003 0.25 Q 0.327 0.25 0.327 0.218 L 0.327 -0.718 Q 0.327 -0.748 0.34700000000000003 -0.75 Q 0.367 -0.75 0.367 -0.714 Z" />
        </g>
      </g>
      <path fill="rgb(110,109,115)" stroke="none" paint-order="stroke fill markers" d=" M 72.98993478140636 39.78355416029635 C 72.98993451976388 39.78355416029635 72.98993425812141 39.783554160296426 72.98993399647897 39.78355416029659 L 72.98993556633376 39.78355416029659 C 72.98993530469131 39.783554160296426 72.98993504304885 39.78355416029635 72.98993478140636 39.78355416029635 Z M 72.98993360746304 39.78355416029689 L 72.98993360746303 39.78355416029689 C 72.82044787358278 39.783554316056495 72.6588405066549 39.817285693148605 72.51145851648795 39.878401281764646 L 72.51145852362154 39.878401281764646 C 72.66428479248087 39.81517001835754 72.82710919212812 39.78355431120163 72.98993361563643 39.78355416029689 Z M 72.98993594691943 39.78355416029689 C 73.15276037051336 39.78355431116837 73.31558477025149 39.815170018324295 73.46841103919118 39.878401281764646 L 73.46841104632477 39.878401281764646 C 73.32102905629125 39.817285693203935 73.15942168952255 39.783554316117566 72.98993595581 39.78355416029689 Z M 72.98993478140636 42.80132111326271 L 71.73993478140636 44.051321113262716 L 71.73993478140636 235.00382476296016 L 72.98993478140642 236.25382476296022 L 72.98993478140636 236.25382476296022 L 74.23993478140639 235.0038247629602 L 74.23993478140636 235.0038247629602 L 74.23993478140636 44.051321113262716 L 72.98993478140636 42.80132111326271 Z M 72.51150534463063 239.17676401178622 L 72.51150534463065 239.17676401178622 C 72.65887507869171 239.23786746876618 72.82046657006387 239.27159171592658 72.98993478140636 239.27159171592658 L 72.98993478140639 239.27159171592658 C 72.82712663710224 239.27159171592658 72.66431849279809 239.23998248121313 72.51150545688503 239.17676401178622 Z M 73.4683974187807 239.17675022975453 L 73.46839741878068 239.17675022975453 C 73.31557473130124 239.23997788720257 73.15275475635381 239.27159171592658 72.98993478140639 239.27159171592658 L 72.98993478140636 239.27159171592658 C 73.15941573364053 239.27159171592658 73.321018781491 239.2378623976897 73.46839745641918 239.17675022975453 Z" fill-opacity="0.8" />
      <path fill="rgb(110,109,115)" stroke="none" paint-order="stroke fill markers" d=" M 72.10605130492317 40.14967068381317 L 67.10605130492317 45.14967068381317 C 66.61789594023409 45.63782604850226 66.61789594023409 46.42928227209046 67.10605130492318 46.91743763677954 C 67.59420666961228 47.40559300146862 68.38566289320046 47.40559300146862 68.87381825788955 46.917437636779525 L 73.87381825788955 41.917437636779525 C 74.36197362257863 41.42928227209043 74.36197362257863 40.637826048502234 73.87381825788954 40.149670683813156 C 73.38566289320045 39.66151531912408 72.59420666961226 39.66151531912408 72.10605130492317 40.14967068381317 Z M 78.87381825788955 45.14967068381317 L 73.87381825788955 40.14967068381317 C 73.38566289320046 39.66151531912408 72.59420666961228 39.66151531912408 72.10605130492318 40.149670683813156 C 71.61789594023409 40.637826048502234 71.61789594023409 41.42928227209043 72.10605130492317 41.917437636779525 L 77.10605130492317 46.917437636779525 C 77.59420666961226 47.40559300146862 78.38566289320045 47.40559300146862 78.87381825788954 46.91743763677954 C 79.36197362257863 46.42928227209046 79.36197362257863 45.63782604850226 78.87381825788955 45.14967068381317 Z" fill-opacity="0.8" />
      <path fill="rgb(110,109,115)" stroke="none" paint-order="stroke fill markers" d=" M 73.87381825788958 237.13770823944338 L 68.87381825788958 232.13770823944338 C 68.3856628932005 231.6495528747543 67.59420666961228 231.6495528747543 67.1060513049232 232.13770823944338 C 66.61789594023412 232.62586360413246 66.61789594023412 233.41731982772066 67.1060513049232 233.90547519240977 L 72.1060513049232 238.90547519240977 C 72.59420666961228 239.39363055709885 73.3856628932005 239.39363055709885 73.87381825788958 238.90547519240977 C 74.36197362257866 238.4173198277207 74.36197362257866 237.6258636041325 73.87381825788958 237.13770823944338 Z M 77.1060513049232 232.13770823944338 L 72.1060513049232 237.13770823944338 C 71.61789594023412 237.6258636041325 71.61789594023412 238.4173198277207 72.1060513049232 238.90547519240977 C 72.59420666961228 239.39363055709885 73.3856628932005 239.39363055709885 73.87381825788958 238.90547519240977 L 78.87381825788958 233.90547519240977 C 79.36197362257866 233.41731982772066 79.36197362257866 232.62586360413246 78.87381825788958 232.13770823944338 C 78.3856628932005 231.6495528747543 77.59420666961228 231.6495528747543 77.1060513049232 232.13770823944338 Z" fill-opacity="0.8" />
      <g transform="scale(19,19)">
        <g transform="translate(11.157894736842104,15.013157894736842)">
          <path fill="rgb(110,109,115)" stroke="none" paint-order="stroke fill markers" d=" M 0.17200000000000001 -0.718 L 0.17200000000000001 0.218 Q 0.17200000000000001 0.248 0.152 0.25 Q 0.132 0.25 0.132 0.214 L 0.132 -0.714 Q 0.132 -0.749 0.152 -0.75 Q 0.17200000000000001 -0.75 0.17200000000000001 -0.718 M 0.367 -0.714 L 0.367 0.214 Q 0.367 0.249 0.34700000000000003 0.25 Q 0.327 0.25 0.327 0.218 L 0.327 -0.718 Q 0.327 -0.748 0.34700000000000003 -0.75 Q 0.367 -0.75 0.367 -0.714 Z" />
        </g>
        <g transform="translate(11.657894736842104,15.013157894736842)">
          <path fill="rgb(110,109,115)" stroke="none" paint-order="stroke fill markers" d=" M 0.506 -0.376 L 0.34 -0.02 Q 0.329 0.004 0.303 0.004 Q 0.277 0.004 0.265 -0.021 L 0.09 -0.397 L 0.026000000000000002 -0.397 L 0.026000000000000002 -0.444 Q 0.036000000000000004 -0.444 0.08 -0.4425 Q 0.124 -0.441 0.14 -0.441 Q 0.214 -0.441 0.264 -0.444 L 0.264 -0.397 L 0.21 -0.397 L 0.337 -0.124 L 0.453 -0.374 Q 0.458 -0.384 0.458 -0.386 Q 0.458 -0.397 0.41000000000000003 -0.397 L 0.41000000000000003 -0.444 Q 0.47300000000000003 -0.441 0.501 -0.441 Q 0.542 -0.441 0.58 -0.444 L 0.58 -0.397 Q 0.536 -0.397 0.5235 -0.3925 Q 0.511 -0.388 0.506 -0.376 Z" />
        </g>
        <g transform="translate(12.280894736842104,15.013157894736842)">
          <path fill="rgb(110,109,115)" stroke="none" paint-order="stroke fill markers" d=" M 0.17200000000000001 -0.718 L 0.17200000000000001 0.218 Q 0.17200000000000001 0.248 0.152 0.25 Q 0.132 0.25 0.132 0.214 L 0.132 -0.714 Q 0.132 -0.749 0.152 -0.75 Q 0.17200000000000001 -0.75 0.17200000000000001 -0.718 M 0.367 -0.714 L 0.367 0.214 Q 0.367 0.249 0.34700000000000003 0.25 Q 0.327 0.25 0.327 0.218 L 0.327 -0.718 Q 0.327 -0.748 0.34700000000000003 -0.75 Q 0.367 -0.75 0.367 -0.714 Z" />
        </g>
      </g>
      <path fill="rgb(110,109,115)" stroke="none" paint-order="stroke fill markers" d=" M 91.53358288923009 257.24192588464945 C 91.47258407243068 257.389028696195 91.43886575664388 257.5503028645118 91.4387388962495 257.7194374352199 L 91.43873890181106 257.7194374352199 C 91.43886267144279 257.5569343760741 91.47047733696694 257.3944508487677 91.53358289838344 257.24192588464945 Z M 330.2295498762315 257.2419515874493 C 330.29264835532064 257.39446910268134 330.3242594762049 257.55694350412796 330.3243832388843 257.7194374352199 L 330.32438324444587 257.7194374352199 C 330.3242563914401 257.5503127152359 330.2905419957904 257.3890474820599 330.2295499092544 257.2419515874493 Z M 91.43873912829362 257.72162453599356 C 91.43890178896245 257.89066302469115 91.47261771577735 258.05184589170494 91.53358576493663 258.19887199323324 L 91.53358576764964 258.19887199323324 C 91.47051337901223 258.04642981465713 91.43889783560819 257.88403969047505 91.4387391374375 257.72162453599356 Z M 330.32438142523944 257.7227365016127 C 330.3240798385725 257.8847808351706 330.29246482117463 258.04677771022887 330.22953637304573 258.19887199323324 L 330.22953637575876 258.19887199323324 C 330.29037072501563 258.0521683126401 330.3240723459722 257.8913698886477 330.32438145827183 257.7227365016127 Z M 95.70650548993572 256.4703954714896 L 94.45650548993571 257.7203954714896 L 95.70650548993571 258.9703954714896 L 326.0566166507597 258.9703954714896 L 327.3066166507597 257.7203954714896 L 326.0566166507597 256.4703954714896 Z" fill-opacity="0.8" />
      <path fill="rgb(110,109,115)" stroke="none" paint-order="stroke fill markers" d=" M 91.80485506048619 258.6042789479728 L 96.80485506048619 263.6042789479728 C 97.29301042517527 264.09243431266185 98.08446664876345 264.09243431266185 98.57262201345253 263.6042789479728 C 99.06077737814161 263.1161235832837 99.06077737814162 262.3246673596955 98.57262201345254 261.83651199500645 L 93.57262201345254 256.83651199500645 C 93.08446664876347 256.34835663031737 92.29301042517528 256.34835663031737 91.8048550604862 256.83651199500645 C 91.31669969579713 257.3246673596955 91.31669969579711 258.1161235832837 91.80485506048619 258.6042789479728 Z M 96.80485506048619 251.83651199500642 L 91.80485506048619 256.83651199500645 C 91.31669969579711 257.3246673596955 91.31669969579713 258.1161235832837 91.8048550604862 258.6042789479728 C 92.29301042517528 259.09243431266185 93.08446664876347 259.09243431266185 93.57262201345254 258.6042789479728 L 98.57262201345254 253.6042789479728 C 99.06077737814164 253.11612358328372 99.06077737814164 252.32466735969552 98.57262201345256 251.83651199500645 C 98.08446664876348 251.34835663031737 97.29301042517528 251.34835663031734 96.80485506048619 251.83651199500642 Z" fill-opacity="0.8" />
      <path fill="rgb(110,109,115)" stroke="none" paint-order="stroke fill markers" d=" M 328.19050012724284 256.83651199500645 L 323.19050012724284 261.83651199500645 C 322.70234476255376 262.3246673596955 322.70234476255376 263.1161235832837 323.19050012724284 263.6042789479728 C 323.6786554919319 264.09243431266185 324.4701117155201 264.09243431266185 324.95826708020917 263.6042789479728 L 329.95826708020917 258.6042789479728 C 330.44642244489825 258.1161235832837 330.44642244489825 257.3246673596955 329.95826708020917 256.83651199500645 C 329.4701117155201 256.34835663031737 328.6786554919319 256.34835663031737 328.19050012724284 256.83651199500645 Z M 323.19050012724284 253.6042789479728 L 328.19050012724284 258.6042789479728 C 328.6786554919319 259.09243431266185 329.4701117155201 259.09243431266185 329.95826708020917 258.6042789479728 C 330.44642244489825 258.1161235832837 330.44642244489825 257.3246673596955 329.95826708020917 256.83651199500645 L 324.95826708020917 251.83651199500642 C 324.4701117155201 251.34835663031734 323.67865549193186 251.34835663031737 323.1905001272428 251.83651199500645 C 322.7023447625537 252.32466735969552 322.70234476255376 253.11612358328372 323.19050012724284 253.6042789479728 Z" fill-opacity="0.8" />
      <path fill="rgb(110,109,115)" stroke="none" paint-order="stroke fill markers" d=" M 312.074383603726 233.77159171592658 L 312.074383603726 236.77159171592658 L 92.68873853696937 236.77159171592658 C 91.99838259968088 236.77159171592658 91.43873853696937 237.33123577863807 91.43873853696937 238.02159171592658 C 91.43873853696937 238.71194765321508 91.99838259968088 239.27159171592658 92.68873853696937 239.27159171592658 L 312.074383603726 239.27159171592658 L 312.074383603726 242.27159171592658 L 329.074383603726 238.02159171592658 L 312.074383603726 233.77159171592658 Z" fill-opacity="0.8" />
      <g transform="scale(19,19)">
        <g transform="translate(10.947368421052632,11.970315789473686)">
          <path fill="rgb(110,109,115)" stroke="none" paint-order="stroke fill markers" d=" M 0.506 -0.376 L 0.34 -0.02 Q 0.329 0.004 0.303 0.004 Q 0.277 0.004 0.265 -0.021 L 0.09 -0.397 L 0.026000000000000002 -0.397 L 0.026000000000000002 -0.444 Q 0.036000000000000004 -0.444 0.08 -0.4425 Q 0.124 -0.441 0.14 -0.441 Q 0.214 -0.441 0.264 -0.444 L 0.264 -0.397 L 0.21 -0.397 L 0.337 -0.124 L 0.453 -0.374 Q 0.458 -0.384 0.458 -0.386 Q 0.458 -0.397 0.41000000000000003 -0.397 L 0.41000000000000003 -0.444 Q 0.47300000000000003 -0.441 0.501 -0.441 Q 0.542 -0.441 0.58 -0.444 L 0.58 -0.397 Q 0.536 -0.397 0.5235 -0.3925 Q 0.511 -0.388 0.506 -0.376 Z" />
        </g>
      </g>
      <path fill="rgb(110,109,115)" stroke="none" paint-order="stroke fill markers" d=" M 250.27916858147375 119.82876918254847 L 234.12916858147383 126.62876918254844 L 235.92916858147382 129.02876918254844 L 91.93873853696937 237.02159171592658 C 91.38645378713858 237.43580527829968 91.27452497459628 238.2193069660958 91.68873853696937 238.77159171592658 C 91.93430642168164 239.09901556220962 92.30966987109518 239.2716652806096 92.68969975159139 239.27166528060962 C 92.95068826319067 239.27166528060962 93.21387763342162 239.1902373935874 93.43873853696937 239.02159171592658 L 237.4291685814738 131.02876918254847 L 237.42916858147385 131.02876918254847 L 239.2291685814738 133.42876918254845 L 250.27916858147378 119.82876918254847 Z" fill-opacity="0.8" />
      <g transform="scale(19,19)">
        <g transform="translate(9,8.12821052631579)">
          <path fill="rgb(110,109,115)" stroke="none" paint-order="stroke fill markers" d=" M 0.438 -0.07200000000000001 Q 0.392 0.006 0.294 0.006 Q 0.209 0.006 0.1615 -0.021500000000000002 Q 0.114 -0.049 0.114 -0.123 L 0.114 -0.356 Q 0.114 -0.384 0.10350000000000001 -0.3895 Q 0.093 -0.395 0.045 -0.395 L 0.045 -0.442 L 0.228 -0.45 L 0.228 -0.109 Q 0.228 -0.063 0.241 -0.0465 Q 0.254 -0.03 0.308 -0.03 Q 0.363 -0.03 0.3975 -0.067 Q 0.432 -0.10400000000000001 0.432 -0.165 L 0.432 -0.356 Q 0.432 -0.384 0.4215 -0.3895 Q 0.41100000000000003 -0.395 0.363 -0.395 L 0.363 -0.442 L 0.546 -0.45 L 0.546 -0.08600000000000001 Q 0.546 -0.058 0.5565 -0.0525 Q 0.5670000000000001 -0.047 0.615 -0.047 L 0.615 0 L 0.438 0.006 L 0.438 -0.07200000000000001 Z" />
        </g>
      </g>
    </g>
  </g>
</svg>