<svg version="1.1" viewBox="0.0 0.0 297.04461942257217 291.3884514435696" fill="none" stroke="none" stroke-linecap="square" stroke-miterlimit="10" xmlns:xlink="http://www.w3.org/1999/xlink" xmlns="http://www.w3.org/2000/svg"><clipPath id="p.0"><path d="m0 0l297.04462 0l0 291.38846l-297.04462 0l0 -291.38846z" clip-rule="nonzero"/></clipPath><g clip-path="url(#p.0)"><path fill="#000000" fill-opacity="0.0" d="m0 0l297.04462 0l0 291.38846l-297.04462 0z" fill-rule="evenodd"/><path fill="#000000" fill-opacity="0.0" d="m4.1286087 167.7979l0 0c0 -61.42102 21.70185 -111.2126 48.472443 -111.2126l0 0c12.85569 0 25.184845 11.717007 34.275192 32.573414c9.090347 20.856407 14.19725 49.14376 14.19725 78.63918l0 0c0 61.42102 -21.70185 111.2126 -48.472443 111.2126l0 0c-26.770592 0 -48.472443 -49.79158 -48.472443 -111.2126z" fill-rule="evenodd"/><path stroke="#000000" stroke-width="2.0" stroke-linejoin="round" stroke-linecap="butt" d="m4.1286087 167.7979l0 0c0 -61.42102 21.70185 -111.2126 48.472443 -111.2126l0 0c12.85569 0 25.184845 11.717007 34.275192 32.573414c9.090347 20.856407 14.19725 49.14376 14.19725 78.63918l0 0c0 61.42102 -21.70185 111.2126 -48.472443 111.2126l0 0c-26.770592 0 -48.472443 -49.79158 -48.472443 -111.2126z" fill-rule="evenodd"/><path fill="#000000" d="m47.451443 71.45801l0 0c0 -2.8440552 2.3055573 -5.1496124 5.1496086 -5.1496124l0 0c1.3657608 0 2.675583 0.54254913 3.6413193 1.5082855c0.9657402 0.965744 1.5082855 2.275566 1.5082855 3.641327l0 0c0 2.8440475 -2.3055573 5.149605 -5.149605 5.149605l0 0c-2.8440514 0 -5.1496086 -2.3055573 -5.1496086 -5.149605z" fill-rule="evenodd"/><path stroke="#000000" stroke-width="1.0" stroke-linejoin="round" stroke-linecap="butt" d="m47.451443 71.45801l0 0c0 -2.8440552 2.3055573 -5.1496124 5.1496086 -5.1496124l0 0c1.3657608 0 2.675583 0.54254913 3.6413193 1.5082855c0.9657402 0.965744 1.5082855 2.275566 1.5082855 3.641327l0 0c0 2.8440475 -2.3055573 5.149605 -5.149605 5.149605l0 0c-2.8440514 0 -5.1496086 -2.3055573 -5.1496086 -5.149605z" fill-rule="evenodd"/><path fill="#666666" d="m47.451443 109.99344l0 0c0 -2.8440475 2.3055573 -5.149605 5.1496086 -5.149605l0 0c1.3657608 0 2.675583 0.5425415 3.6413193 1.5082855c0.9657402 0.9657364 1.5082855 2.2755585 1.5082855 3.6413193l0 0c0 2.8440475 -2.3055573 5.149605 -5.149605 5.149605l0 0c-2.8440514 0 -5.1496086 -2.3055573 -5.1496086 -5.149605z" fill-rule="evenodd"/><path stroke="#666666" stroke-width="1.0" stroke-linejoin="round" stroke-linecap="butt" d="m47.451443 109.99344l0 0c0 -2.8440475 2.3055573 -5.149605 5.1496086 -5.149605l0 0c1.3657608 0 2.675583 0.5425415 3.6413193 1.5082855c0.9657402 0.9657364 1.5082855 2.2755585 1.5082855 3.6413193l0 0c0 2.8440475 -2.3055573 5.149605 -5.149605 5.149605l0 0c-2.8440514 0 -5.1496086 -2.3055573 -5.1496086 -5.149605z" fill-rule="evenodd"/><path fill="#000000" d="m47.451443 148.52887l0 0c0 -2.84404 2.3055573 -5.149597 5.1496086 -5.149597l0 0c1.3657608 0 2.675583 0.5425415 3.6413193 1.5082703c0.9657402 0.965744 1.5082855 2.2755737 1.5082855 3.641327l0 0c0 2.8440552 -2.3055573 5.1496124 -5.149605 5.1496124l0 0c-2.8440514 0 -5.1496086 -2.3055573 -5.1496086 -5.1496124z" fill-rule="evenodd"/><path stroke="#000000" stroke-width="1.0" stroke-linejoin="round" stroke-linecap="butt" d="m47.451443 148.52887l0 0c0 -2.84404 2.3055573 -5.149597 5.1496086 -5.149597l0 0c1.3657608 0 2.675583 0.5425415 3.6413193 1.5082703c0.9657402 0.965744 1.5082855 2.2755737 1.5082855 3.641327l0 0c0 2.8440552 -2.3055573 5.1496124 -5.149605 5.1496124l0 0c-2.8440514 0 -5.1496086 -2.3055573 -5.1496086 -5.1496124z" fill-rule="evenodd"/><path fill="#000000" d="m47.451443 187.0643l0 0c0 -2.84404 2.3055573 -5.149597 5.1496086 -5.149597l0 0c1.3657608 0 2.675583 0.5425415 3.6413193 1.5082855c0.9657402 0.96572876 1.5082855 2.2755585 1.5082855 3.6413116l0 0c0 2.8440552 -2.3055573 5.1496124 -5.149605 5.1496124l0 0c-2.8440514 0 -5.1496086 -2.3055573 -5.1496086 -5.1496124z" fill-rule="evenodd"/><path stroke="#000000" stroke-width="1.0" stroke-linejoin="round" stroke-linecap="butt" d="m47.451443 187.0643l0 0c0 -2.84404 2.3055573 -5.149597 5.1496086 -5.149597l0 0c1.3657608 0 2.675583 0.5425415 3.6413193 1.5082855c0.9657402 0.96572876 1.5082855 2.2755585 1.5082855 3.6413116l0 0c0 2.8440552 -2.3055573 5.1496124 -5.149605 5.1496124l0 0c-2.8440514 0 -5.1496086 -2.3055573 -5.1496086 -5.1496124z" fill-rule="evenodd"/><path fill="#000000" d="m47.451443 225.59973l0 0c0 -2.84404 2.3055573 -5.149597 5.1496086 -5.149597l0 0c1.3657608 0 2.675583 0.5425415 3.6413193 1.5082855c0.9657402 0.96572876 1.5082855 2.2755585 1.5082855 3.6413116l0 0c0 2.8440552 -2.3055573 5.1496124 -5.149605 5.1496124l0 0c-2.8440514 0 -5.1496086 -2.3055573 -5.1496086 -5.1496124z" fill-rule="evenodd"/><path stroke="#000000" stroke-width="1.0" stroke-linejoin="round" stroke-linecap="butt" d="m47.451443 225.59973l0 0c0 -2.84404 2.3055573 -5.149597 5.1496086 -5.149597l0 0c1.3657608 0 2.675583 0.5425415 3.6413193 1.5082855c0.9657402 0.96572876 1.5082855 2.2755585 1.5082855 3.6413116l0 0c0 2.8440552 -2.3055573 5.1496124 -5.149605 5.1496124l0 0c-2.8440514 0 -5.1496086 -2.3055573 -5.1496086 -5.1496124z" fill-rule="evenodd"/><path fill="#000000" d="m47.451443 264.13516l0 0c0 -2.8440552 2.3055573 -5.149597 5.1496086 -5.149597l0 0c1.3657608 0 2.675583 0.5425415 3.6413193 1.5082703c0.9657402 0.9657593 1.5082855 2.2755737 1.5082855 3.641327l0 0c0 2.8440552 -2.3055573 5.1496277 -5.149605 5.1496277l0 0c-2.8440514 0 -5.1496086 -2.3055725 -5.1496086 -5.1496277z" fill-rule="evenodd"/><path stroke="#000000" stroke-width="1.0" stroke-linejoin="round" stroke-linecap="butt" d="m47.451443 264.13516l0 0c0 -2.8440552 2.3055573 -5.149597 5.1496086 -5.149597l0 0c1.3657608 0 2.675583 0.5425415 3.6413193 1.5082703c0.9657402 0.9657593 1.5082855 2.2755737 1.5082855 3.641327l0 0c0 2.8440552 -2.3055573 5.1496277 -5.149605 5.1496277l0 0c-2.8440514 0 -5.1496086 -2.3055725 -5.1496086 -5.1496277z" fill-rule="evenodd"/><path fill="#000000" fill-opacity="0.0" d="m37.593174 26.16273l30.01575 0l0 30.425196l-30.01575 0z" fill-rule="evenodd"/><path fill="#000000" d="m56.74429 46.98533l0 0.25l-3.9375 0l0 -0.25q0.765625 -0.09375 1.0 -0.25q0.25 -0.15625 0.25 -0.609375q0 -0.125 -0.046875 -0.40625l-0.3125 -2.09375l-3.515625 0l-0.921875 1.796875q-0.3125 0.640625 -0.3125 1.0q0 0.296875 0.15625 0.40625q0.171875 0.09375 0.78125 0.15625l0 0.25l-2.984375 0l0 -0.25q0.5 -0.109375 0.828125 -0.484375q0.328125 -0.390625 1.234375 -1.953125l4.640625 -8.0l0.40625 0l1.515625 9.0625q0.15625 0.875 0.34375 1.09375q0.203125 0.21875 0.875 0.28125zm-6.234375 -3.9375l3.109375 0l-0.703125 -4.171875l-2.40625 4.171875z" fill-rule="nonzero"/><path fill="#000000" fill-opacity="0.0" d="m24.19654 97.48637l30.015747 0l0 30.425194l-30.015747 0z" fill-rule="evenodd"/><path fill="#666666" d="m41.34503 117.90272q0.15625 0 0.53125 -0.34375q0.375 -0.34375 0.75 -0.765625l0.1875 0.171875q-0.875 1.078125 -1.3125 1.421875q-0.421875 0.328125 -0.90625 0.328125q-0.640625 0 -0.640625 -0.65625q0 -0.390625 0.375 -1.84375q-1.0625 1.5 -1.71875 2.015625q-0.65625 0.5 -1.5 0.5q-0.765625 0 -1.203125 -0.46875q-0.4375 -0.46875 -0.4375 -1.296875q0 -1.234375 0.6875 -2.515625q0.703125 -1.28125 1.78125 -2.109375q1.09375 -0.84375 2.109375 -0.84375q1.078125 0 1.28125 0.9375l0.171875 -0.765625l0.0625 -0.046875l0.96875 -0.125l0.109375 0.046875q-0.015625 0.078125 -0.09375 0.34375q-1.421875 5.21875 -1.421875 5.8125q0 0.203125 0.21875 0.203125zm-0.296875 -5.078125q0 -0.4375 -0.265625 -0.703125q-0.265625 -0.265625 -0.71875 -0.265625q-0.875 0 -1.671875 1.03125q-0.78125 1.015625 -1.1875 2.125q-0.390625 1.109375 -0.390625 1.734375q0 0.546875 0.25 0.875q0.265625 0.328125 0.6875 0.328125q0.75 0 1.53125 -0.875q0.78125 -0.875 1.265625 -2.0625q0.5 -1.203125 0.5 -2.1875z" fill-rule="nonzero"/><path fill="#000000" fill-opacity="0.0" d="m137.98688 167.7979l0 0c0 -61.42102 21.701843 -111.2126 48.472443 -111.2126l0 0c12.855682 0 25.184845 11.717007 34.275192 32.573414c9.090347 20.856407 14.19725 49.14376 14.19725 78.63918l0 0c0 61.42102 -21.701859 111.2126 -48.472443 111.2126l0 0c-26.7706 0 -48.472443 -49.79158 -48.472443 -111.2126z" fill-rule="evenodd"/><path stroke="#000000" stroke-width="2.0" stroke-linejoin="round" stroke-linecap="butt" d="m137.98688 167.7979l0 0c0 -61.42102 21.701843 -111.2126 48.472443 -111.2126l0 0c12.855682 0 25.184845 11.717007 34.275192 32.573414c9.090347 20.856407 14.19725 49.14376 14.19725 78.63918l0 0c0 61.42102 -21.701859 111.2126 -48.472443 111.2126l0 0c-26.7706 0 -48.472443 -49.79158 -48.472443 -111.2126z" fill-rule="evenodd"/><path fill="#666666" d="m181.30971 71.45801l0 0c0 -2.8440552 2.3055573 -5.1496124 5.1496124 -5.1496124l0 0c1.3657532 0 2.675583 0.54254913 3.6413116 1.5082855c0.965744 0.965744 1.5082855 2.275566 1.5082855 3.641327l0 0c0 2.8440475 -2.3055573 5.149605 -5.149597 5.149605l0 0c-2.8440552 0 -5.1496124 -2.3055573 -5.1496124 -5.149605z" fill-rule="evenodd"/><path stroke="#666666" stroke-width="1.0" stroke-linejoin="round" stroke-linecap="butt" d="m181.30971 71.45801l0 0c0 -2.8440552 2.3055573 -5.1496124 5.1496124 -5.1496124l0 0c1.3657532 0 2.675583 0.54254913 3.6413116 1.5082855c0.965744 0.965744 1.5082855 2.275566 1.5082855 3.641327l0 0c0 2.8440475 -2.3055573 5.149605 -5.149597 5.149605l0 0c-2.8440552 0 -5.1496124 -2.3055573 -5.1496124 -5.149605z" fill-rule="evenodd"/><path fill="#000000" d="m181.30971 109.99344l0 0c0 -2.8440475 2.3055573 -5.149605 5.1496124 -5.149605l0 0c1.3657532 0 2.675583 0.5425415 3.6413116 1.5082855c0.965744 0.9657364 1.5082855 2.2755585 1.5082855 3.6413193l0 0c0 2.8440475 -2.3055573 5.149605 -5.149597 5.149605l0 0c-2.8440552 0 -5.1496124 -2.3055573 -5.1496124 -5.149605z" fill-rule="evenodd"/><path stroke="#000000" stroke-width="1.0" stroke-linejoin="round" stroke-linecap="butt" d="m181.30971 109.99344l0 0c0 -2.8440475 2.3055573 -5.149605 5.1496124 -5.149605l0 0c1.3657532 0 2.675583 0.5425415 3.6413116 1.5082855c0.965744 0.9657364 1.5082855 2.2755585 1.5082855 3.6413193l0 0c0 2.8440475 -2.3055573 5.149605 -5.149597 5.149605l0 0c-2.8440552 0 -5.1496124 -2.3055573 -5.1496124 -5.149605z" fill-rule="evenodd"/><path fill="#000000" d="m181.30971 148.52887l0 0c0 -2.84404 2.3055573 -5.149597 5.1496124 -5.149597l0 0c1.3657532 0 2.675583 0.5425415 3.6413116 1.5082703c0.965744 0.965744 1.5082855 2.2755737 1.5082855 3.641327l0 0c0 2.8440552 -2.3055573 5.1496124 -5.149597 5.1496124l0 0c-2.8440552 0 -5.1496124 -2.3055573 -5.1496124 -5.1496124z" fill-rule="evenodd"/><path stroke="#000000" stroke-width="1.0" stroke-linejoin="round" stroke-linecap="butt" d="m181.30971 148.52887l0 0c0 -2.84404 2.3055573 -5.149597 5.1496124 -5.149597l0 0c1.3657532 0 2.675583 0.5425415 3.6413116 1.5082703c0.965744 0.965744 1.5082855 2.2755737 1.5082855 3.641327l0 0c0 2.8440552 -2.3055573 5.1496124 -5.149597 5.1496124l0 0c-2.8440552 0 -5.1496124 -2.3055573 -5.1496124 -5.1496124z" fill-rule="evenodd"/><path fill="#000000" d="m181.30971 187.0643l0 0c0 -2.84404 2.3055573 -5.149597 5.1496124 -5.149597l0 0c1.3657532 0 2.675583 0.5425415 3.6413116 1.5082855c0.965744 0.96572876 1.5082855 2.2755585 1.5082855 3.6413116l0 0c0 2.8440552 -2.3055573 5.1496124 -5.149597 5.1496124l0 0c-2.8440552 0 -5.1496124 -2.3055573 -5.1496124 -5.1496124z" fill-rule="evenodd"/><path stroke="#000000" stroke-width="1.0" stroke-linejoin="round" stroke-linecap="butt" d="m181.30971 187.0643l0 0c0 -2.84404 2.3055573 -5.149597 5.1496124 -5.149597l0 0c1.3657532 0 2.675583 0.5425415 3.6413116 1.5082855c0.965744 0.96572876 1.5082855 2.2755585 1.5082855 3.6413116l0 0c0 2.8440552 -2.3055573 5.1496124 -5.149597 5.1496124l0 0c-2.8440552 0 -5.1496124 -2.3055573 -5.1496124 -5.1496124z" fill-rule="evenodd"/><path fill="#000000" d="m181.30971 225.59973l0 0c0 -2.84404 2.3055573 -5.149597 5.1496124 -5.149597l0 0c1.3657532 0 2.675583 0.5425415 3.6413116 1.5082855c0.965744 0.96572876 1.5082855 2.2755585 1.5082855 3.6413116l0 0c0 2.8440552 -2.3055573 5.1496124 -5.149597 5.1496124l0 0c-2.8440552 0 -5.1496124 -2.3055573 -5.1496124 -5.1496124z" fill-rule="evenodd"/><path stroke="#000000" stroke-width="1.0" stroke-linejoin="round" stroke-linecap="butt" d="m181.30971 225.59973l0 0c0 -2.84404 2.3055573 -5.149597 5.1496124 -5.149597l0 0c1.3657532 0 2.675583 0.5425415 3.6413116 1.5082855c0.965744 0.96572876 1.5082855 2.2755585 1.5082855 3.6413116l0 0c0 2.8440552 -2.3055573 5.1496124 -5.149597 5.1496124l0 0c-2.8440552 0 -5.1496124 -2.3055573 -5.1496124 -5.1496124z" fill-rule="evenodd"/><path fill="#000000" fill-opacity="0.0" d="m185.24066 60.62538l30.015747 0l0 30.425201l-30.015747 0z" fill-rule="evenodd"/><path fill="#666666" d="m198.01416 71.41673l0 -0.28125q1.1875 -0.140625 2.4375 -0.359375l0.078125 0.078125l-1.65625 6.203125q0.84375 -1.328125 1.546875 -1.875q0.703125 -0.546875 1.546875 -0.546875q0.796875 0 1.3125 0.546875q0.53125 0.546875 0.53125 1.375q0 1.234375 -0.765625 2.484375q-0.75 1.234375 -1.9375 2.03125q-1.171875 0.796875 -2.359375 0.796875q-0.671875 0 -1.40625 -0.28125q-0.71875 -0.296875 -0.71875 -0.5625l0 -0.0625l2.171875 -8.015625q0.25 -0.890625 0.25 -1.109375q0 -0.265625 -0.171875 -0.328125q-0.15625 -0.078125 -0.859375 -0.09375zm0.71875 10.09375q0.8125 0 1.546875 -0.578125q0.75 -0.578125 1.203125 -1.375q0.453125 -0.796875 0.703125 -1.546875q0.265625 -0.765625 0.265625 -1.203125q0 -0.640625 -0.3125 -1.0q-0.296875 -0.375 -0.796875 -0.375q-0.71875 0 -1.375 0.6875q-0.65625 0.671875 -1.078125 1.609375q-0.421875 0.9375 -0.65625 1.828125q-0.234375 0.890625 -0.234375 1.40625q0 0.546875 0.734375 0.546875z" fill-rule="nonzero"/><path fill="#000000" fill-opacity="0.0" d="m171.45145 26.16273l30.015747 0l0 30.425196l-30.015747 0z" fill-rule="evenodd"/><path fill="#000000" d="m188.18068 41.625954q0.46875 0.1875 0.75 0.359375q0.28125 0.15625 0.609375 0.4375q0.328125 0.28125 0.484375 0.6875q0.171875 0.390625 0.171875 0.921875q0 1.421875 -1.1875 2.3125q-1.171875 0.890625 -3.046875 0.890625l-4.515625 0l0 -0.25q0.6875 -0.140625 0.890625 -0.3125q0.203125 -0.1875 0.40625 -0.875l1.96875 -7.078125q0.171875 -0.609375 0.171875 -1.015625q0 -0.34375 -0.25 -0.46875q-0.25 -0.125 -0.984375 -0.1875l0 -0.265625l4.125 0q1.5625 0 2.375 0.609375q0.828125 0.609375 0.828125 1.75q0 0.46875 -0.171875 0.859375q-0.15625 0.375 -0.421875 0.609375q-0.25 0.234375 -0.578125 0.4375q-0.3125 0.203125 -0.625 0.296875q-0.3125 0.09375 -0.59375 0.1875q-0.265625 0.078125 -0.40625 0.09375zm-2.796875 0.3125q-0.28125 1.078125 -0.53125 1.921875q-0.234375 0.84375 -0.34375 1.15625q-0.09375 0.296875 -0.15625 0.5625q-0.046875 0.25 -0.046875 0.5q0 0.671875 1.03125 0.671875q1.453125 0 2.28125 -0.734375q0.84375 -0.75 0.84375 -2.046875q0 -0.65625 -0.28125 -1.140625q-0.265625 -0.484375 -0.765625 -0.703125q-0.484375 -0.1875 -2.03125 -0.1875zm1.203125 -4.21875l-1.046875 3.703125q2.015625 0 2.75 -0.421875q1.078125 -0.59375 1.078125 -2.0q0 -0.890625 -0.46875 -1.3125q-0.453125 -0.421875 -1.40625 -0.421875q-0.46875 0 -0.65625 0.09375q-0.171875 0.078125 -0.25 0.359375z" fill-rule="nonzero"/><path fill="#000000" fill-opacity="0.0" d="m57.750656 264.13516l123.55905 -38.519684" fill-rule="evenodd"/><path stroke="#000000" stroke-width="1.0" stroke-linejoin="round" stroke-linecap="butt" d="m57.750656 264.13516l117.83095 -36.733932" fill-rule="evenodd"/><path fill="#000000" stroke="#000000" stroke-width="1.0" stroke-linecap="butt" d="m176.07321 228.9781l3.8408508 -2.9275208l-4.824051 -0.22624207z" fill-rule="evenodd"/><path fill="#000000" fill-opacity="0.0" d="m57.750656 225.59973l125.07086 -111.9685" fill-rule="evenodd"/><path stroke="#000000" stroke-width="1.0" stroke-linejoin="round" stroke-linecap="butt" d="m57.750656 225.59973l120.60054 -107.96648" fill-rule="evenodd"/><path fill="#000000" stroke="#000000" stroke-width="1.0" stroke-linecap="butt" d="m179.45291 118.863884l2.279419 -4.257553l-4.482849 1.7962875z" fill-rule="evenodd"/><path fill="#000000" fill-opacity="0.0" d="m57.750656 187.0643l123.55905 0" fill-rule="evenodd"/><path stroke="#000000" stroke-width="1.0" stroke-linejoin="round" stroke-linecap="butt" d="m57.750656 187.0643l117.55905 0" fill-rule="evenodd"/><path fill="#000000" stroke="#000000" stroke-width="1.0" stroke-linecap="butt" d="m175.30971 188.71603l4.538101 -1.6517334l-4.538101 -1.6517334z" fill-rule="evenodd"/><path fill="#000000" fill-opacity="0.0" d="m57.750656 148.52887l123.55905 0" fill-rule="evenodd"/><path stroke="#000000" stroke-width="1.0" stroke-linejoin="round" stroke-linecap="butt" d="m57.750656 148.52887l117.55905 0" fill-rule="evenodd"/><path fill="#000000" stroke="#000000" stroke-width="1.0" stroke-linecap="butt" d="m175.30971 150.1806l4.538101 -1.6517334l-4.538101 -1.6517334z" fill-rule="evenodd"/><path fill="#000000" fill-opacity="0.0" d="m57.750656 109.99344l123.55905 -38.519684" fill-rule="evenodd"/><path stroke="#666666" stroke-width="1.0" stroke-linejoin="round" stroke-linecap="butt" d="m57.750656 109.99344l117.83095 -36.733948" fill-rule="evenodd"/><path fill="#666666" stroke="#666666" stroke-width="1.0" stroke-linecap="butt" d="m176.07321 74.83638l3.8408508 -2.9275284l-4.824051 -0.22623444z" fill-rule="evenodd"/><path fill="#000000" fill-opacity="0.0" d="m56.24237 75.09933l126.58267 146.86615" fill-rule="evenodd"/><path stroke="#000000" stroke-width="1.0" stroke-linejoin="round" stroke-linecap="butt" d="m56.24237 75.09933l122.6655 142.32129" fill-rule="evenodd"/><path fill="#000000" stroke="#000000" stroke-width="1.0" stroke-linecap="butt" d="m177.65672 218.49896l4.2138977 2.359146l-1.7115936 -4.515854z" fill-rule="evenodd"/><path fill="#000000" fill-opacity="0.0" d="m99.2979 34.536747l-20.755905 20.755905" fill-rule="evenodd"/><path stroke="#000000" stroke-width="1.0" stroke-linejoin="round" stroke-linecap="butt" d="m99.2979 34.536747l-16.513268 16.513264" fill-rule="evenodd"/><path fill="#000000" stroke="#000000" stroke-width="1.0" stroke-linecap="butt" d="m81.616684 49.88206l-2.0409698 4.376869l4.376869 -2.0409698z" fill-rule="evenodd"/><path fill="#000000" fill-opacity="0.0" d="m67.61024 11.594488l77.85827 0l0 30.425196l-77.85827 0z" fill-rule="evenodd"/><path fill="#000000" d="m77.894844 21.104586l5.96875 0q1.328125 0 2.265625 0.46875q1.15625 0.59375 1.953125 1.984375q0.8125 1.375 0.8125 3.265625q0 1.5625 -0.484375 2.8125q-0.359375 0.96875 -1.125 1.6875q-0.765625 0.7187519 -1.859375 1.0781269q-0.8125 0.265625 -2.1875 0.265625l-5.34375 0l0 -0.59375l1.09375 0q0.421875 0 0.578125 -0.1250019q0.15625 -0.140625 0.15625 -0.421875l0 -9.296875q0 -0.25 -0.171875 -0.390625q-0.171875 -0.140625 -0.46875 -0.140625l-1.1875 0l0 -0.59375zm4.1875 0.59375q-0.34375 0 -0.515625 0.15625q-0.171875 0.140625 -0.171875 0.4375l0 9.21875q0 0.28125 0.1875 0.421875q0.203125 0.1406269 0.671875 0.1406269l0.984375 0q1.328125 0 2.3125 -0.6718769q0.65625 -0.453125 0.984375 -1.28125q0.46875 -1.109375 0.46875 -3.0625q0 -2.890625 -1.015625 -4.234375q-0.859375 -1.125 -2.59375 -1.125l-1.3125 0zm11.6953125 3.421875q1.46875 0 2.46875 1.078125q1.015625 1.0625 1.015625 2.796875q0 1.203125 -0.453125 2.0625q-0.453125 0.84375 -1.28125 1.3437519q-0.828125 0.484375 -1.796875 0.484375q-1.421875 0 -2.40625 -1.0781269q-0.984375 -1.078125 -0.984375 -2.796875q0 -1.734375 0.984375 -2.8125q1.0 -1.078125 2.453125 -1.078125zm0 0.5625q-0.875 0 -1.4375 0.796875q-0.5625 0.78125 -0.5625 2.5q0 1.734375 0.546875 2.546875q0.5625 0.7968769 1.453125 0.7968769q0.90625 0 1.46875 -0.7968769q0.578125 -0.8125 0.578125 -2.640625q0 -1.6875 -0.5625 -2.4375q-0.5625 -0.765625 -1.484375 -0.765625zm5.0 -0.34375l2.09375 -0.125q0.171875 0.8125 0.21875 1.5625q0.59375 -0.859375 1.1875 -1.203125q0.59375 -0.359375 1.3125 -0.359375q0.75 0 1.234375 0.40625q0.5 0.390625 0.765625 1.28125q0.53125 -0.84375 1.171875 -1.265625q0.640625 -0.421875 1.390625 -0.421875q1.0 0 1.5 0.59375q0.640625 0.78125 0.640625 2.015625l0 3.625q0 0.328125 0.171875 0.453125q0.21875 0.1718769 0.640625 0.1718769l0.375 0l0 0.59375l-3.6875 0l0 -0.59375l0.375 0q0.46875 0 0.65625 -0.1562519q0.1875 -0.15625 0.1875 -0.46875l0 -3.625q0 -0.8125 -0.40625 -1.25q-0.390625 -0.453125 -1.046875 -0.453125q-0.484375 0 -0.890625 0.265625q-0.390625 0.25 -0.625 0.734375q-0.328125 0.703125 -0.328125 1.1875l0 3.140625q0 0.328125 0.171875 0.484375q0.171875 0.1406269 0.53125 0.1406269l0.5 0l0 0.59375l-3.734375 0l0 -0.59375l0.421875 0q0.40625 0 0.59375 -0.1562519q0.203125 -0.15625 0.203125 -0.390625l0 -3.375q0 -1.078125 -0.390625 -1.5625q-0.375 -0.484375 -1.015625 -0.484375q-0.828125 0 -1.265625 0.5625q-0.640625 0.796875 -0.640625 1.859375l0 2.921875q0 0.34375 0.15625 0.46875q0.203125 0.1562519 0.65625 0.1562519l0.375 0l0 0.59375l-3.6875 0l0 -0.59375l0.546875 0q0.3125 0 0.484375 -0.1562519q0.171875 -0.15625 0.171875 -0.390625l0 -4.796875q0 -0.40625 -0.203125 -0.59375q-0.203125 -0.203125 -0.8125 -0.25l0 -0.546875zm21.507812 6.515625l0.28125 0.4375019q-0.578125 0.59375 -1.265625 0.59375q-0.53125 0 -0.90625 -0.28125q-0.359375 -0.296875 -0.625 -1.0312519q-0.75 0.7812519 -1.3125 1.0468769q-0.5625 0.265625 -1.34375 0.265625q-1.125 0 -1.71875 -0.484375q-0.578125 -0.4843769 -0.578125 -1.2500019q0 -1.140625 1.328125 -1.890625q1.34375 -0.75 3.578125 -1.0l0 -1.109375q0 -0.59375 -0.484375 -1.015625q-0.46875 -0.421875 -1.203125 -0.421875q-0.6875 0 -1.171875 0.28125q-0.359375 0.203125 -0.359375 0.40625q0 0.125 0.1875 0.375q0.234375 0.3125 0.234375 0.546875q0 0.359375 -0.234375 0.578125q-0.21875 0.21875 -0.59375 0.21875q-0.390625 0 -0.65625 -0.265625q-0.25 -0.265625 -0.25 -0.671875q0 -0.78125 0.859375 -1.421875q0.875 -0.640625 2.296875 -0.640625q1.296875 0 1.984375 0.5625q0.6875 0.578125 0.6875 1.390625l0 4.0q0 0.53125 0.171875 0.78125q0.171875 0.2500019 0.453125 0.2500019q0.296875 0 0.640625 -0.2500019zm-2.5625 -3.078125q-1.984375 0.265625 -2.8125 0.890625q-0.625 0.46875 -0.625 1.328125q0 0.59375 0.3125 0.9375q0.328125 0.3437519 0.84375 0.3437519q0.921875 0 1.59375 -0.7031269q0.6875 -0.703125 0.6875 -1.75l0 -1.046875zm5.6015625 -7.796875q0.359375 0 0.625 0.265625q0.265625 0.265625 0.265625 0.625q0 0.34375 -0.265625 0.609375q-0.25 0.25 -0.609375 0.25q-0.359375 0 -0.625 -0.25q-0.265625 -0.265625 -0.265625 -0.625q0 -0.34375 0.265625 -0.609375q0.265625 -0.265625 0.609375 -0.265625zm-2.015625 4.359375l2.90625 -0.078125l0 6.296875q0 0.25 0.125 0.359375q0.171875 0.1562519 0.453125 0.1562519l0.828125 0l0 0.59375l-4.15625 0l0 -0.59375l0.765625 0q0.34375 0 0.5 -0.1562519q0.171875 -0.171875 0.171875 -0.5l0 -4.609375q0 -0.4375 -0.25 -0.65625q-0.25 -0.21875 -0.75 -0.21875l-0.59375 0l0 -0.59375zm5.1796875 0l2.4218674 -0.140625q0.15625 0.6875 0.21875 1.609375q0.5 -0.796875 1.15625 -1.1875q0.671875 -0.40625 1.5156403 -0.40625q0.734375 0 1.21875 0.28125q0.5 0.28125 0.796875 0.90625q0.296875 0.609375 0.296875 1.375l0 3.5625q0 0.40625 0.171875 0.578125q0.1875 0.1562519 0.609375 0.1562519l0.515625 0l0 0.59375l-3.8593903 0l0 -0.59375l0.35939026 0q0.515625 0 0.71875 -0.1562519q0.203125 -0.171875 0.203125 -0.5l0 -3.125q0 -1.03125 -0.3125 -1.515625q-0.4375 -0.703125 -1.3281403 -0.703125q-0.875 0 -1.46875 0.71875q-0.59375 0.703125 -0.59375 1.84375l0 2.703125q0 0.40625 0.1875 0.578125q0.1875 0.1562519 0.609375 0.1562519l0.5 0l0 0.59375l-3.8749924 0l0 -0.59375l0.515625 0q0.375 0 0.578125 -0.1562519q0.203125 -0.15625 0.203125 -0.390625l0 -4.71875q0 -0.46875 -0.265625 -0.703125q-0.25 -0.25 -0.71875 -0.25l-0.375 0l0 -0.515625z" fill-rule="nonzero"/><path fill="#000000" fill-opacity="0.0" d="m233.15486 34.536747l-20.755905 20.755905" fill-rule="evenodd"/><path stroke="#000000" stroke-width="1.0" stroke-linejoin="round" stroke-linecap="butt" d="m233.15486 34.536747l-16.513275 16.513264" fill-rule="evenodd"/><path fill="#000000" stroke="#000000" stroke-width="1.0" stroke-linecap="butt" d="m215.47363 49.88206l-2.0409546 4.376869l4.3768616 -2.0409698z" fill-rule="evenodd"/><path fill="#000000" fill-opacity="0.0" d="m201.4672 11.594488l77.85828 0l0 30.425196l-77.85828 0z" fill-rule="evenodd"/><path fill="#000000" d="m217.39243 21.104586l5.96875 0q1.734375 0 2.6875 0.796875q0.96875 0.78125 0.96875 2.0625q0 0.765625 -0.390625 1.375q-0.375 0.59375 -1.09375 0.953125q-0.703125 0.34375 -2.234375 0.5q1.109375 0.3125 1.53125 0.609375q0.421875 0.28125 0.671875 0.75q0.265625 0.46875 0.59375 1.890625q0.234375 1.03125 0.5 1.40625q0.203125 0.28125 0.4375 0.28125q0.234375 0 0.4375 -0.34375q0.21875 -0.359375 0.265625 -1.265625l0.53125 0q-0.15625 2.671877 -1.96875 2.671877q-0.5625 0 -0.984375 -0.296875q-0.421875 -0.296875 -0.625 -0.8593769q-0.171875 -0.421875 -0.375 -2.203125q-0.109375 -1.046875 -0.375 -1.484375q-0.25 -0.4375 -0.796875 -0.703125q-0.53125 -0.265625 -1.28125 -0.265625l-0.9375 0l0 4.546875q0 0.28125 0.140625 0.40625q0.1875 0.1406269 0.59375 0.1406269l1.109375 0l0 0.59375l-5.375 0l0 -0.59375l1.140625 0q0.375 0 0.546875 -0.1406269q0.171875 -0.15625 0.171875 -0.40625l0 -9.234375q0 -0.296875 -0.1875 -0.4375q-0.171875 -0.15625 -0.53125 -0.15625l-1.140625 0l0 -0.59375zm3.53125 5.3125l1.359375 0q1.375 0 2.15625 -0.515625q0.78125 -0.515625 0.78125 -1.84375q0 -0.921875 -0.296875 -1.453125q-0.296875 -0.53125 -0.78125 -0.71875q-0.46875 -0.203125 -1.859375 -0.203125q-0.921875 0 -1.140625 0.140625q-0.21875 0.125 -0.21875 0.4375l0 4.15625zm15.8828125 5.4375l0.28125 0.4375019q-0.578125 0.59375 -1.265625 0.59375q-0.53125 0 -0.90625 -0.28125q-0.359375 -0.296875 -0.625 -1.0312519q-0.75 0.7812519 -1.3125 1.0468769q-0.5625 0.265625 -1.34375 0.265625q-1.125 0 -1.71875 -0.484375q-0.578125 -0.4843769 -0.578125 -1.2500019q0 -1.140625 1.328125 -1.890625q1.34375 -0.75 3.578125 -1.0l0 -1.109375q0 -0.59375 -0.484375 -1.015625q-0.46875 -0.421875 -1.203125 -0.421875q-0.6875 0 -1.171875 0.28125q-0.359375 0.203125 -0.359375 0.40625q0 0.125 0.1875 0.375q0.234375 0.3125 0.234375 0.546875q0 0.359375 -0.234375 0.578125q-0.21875 0.21875 -0.59375 0.21875q-0.390625 0 -0.65625 -0.265625q-0.25 -0.265625 -0.25 -0.671875q0 -0.78125 0.859375 -1.421875q0.875 -0.640625 2.296875 -0.640625q1.296875 0 1.984375 0.5625q0.6875 0.578125 0.6875 1.390625l0 4.0q0 0.53125 0.171875 0.78125q0.171875 0.2500019 0.453125 0.2500019q0.296875 0 0.640625 -0.2500019zm-2.5625 -3.078125q-1.984375 0.265625 -2.8125 0.890625q-0.625 0.46875 -0.625 1.328125q0 0.59375 0.3125 0.9375q0.328125 0.3437519 0.84375 0.3437519q0.921875 0 1.59375 -0.7031269q0.6875 -0.703125 0.6875 -1.75l0 -1.046875zm3.7265625 -3.4375l2.421875 -0.140625q0.15625 0.6875 0.21875 1.609375q0.5 -0.796875 1.15625 -1.1875q0.671875 -0.40625 1.515625 -0.40625q0.734375 0 1.21875 0.28125q0.5 0.28125 0.796875 0.90625q0.296875 0.609375 0.296875 1.375l0 3.5625q0 0.40625 0.171875 0.578125q0.1875 0.1562519 0.609375 0.1562519l0.515625 0l0 0.59375l-3.859375 0l0 -0.59375l0.359375 0q0.515625 0 0.71875 -0.1562519q0.203125 -0.171875 0.203125 -0.5l0 -3.125q0 -1.03125 -0.3125 -1.515625q-0.4375 -0.703125 -1.328125 -0.703125q-0.875 0 -1.46875 0.71875q-0.59375 0.703125 -0.59375 1.84375l0 2.703125q0 0.40625 0.1875 0.578125q0.1875 0.1562519 0.609375 0.1562519l0.5 0l0 0.59375l-3.875 0l0 -0.59375l0.515625 0q0.375 0 0.578125 -0.1562519q0.203125 -0.15625 0.203125 -0.390625l0 -4.71875q0 -0.46875 -0.265625 -0.703125q-0.25 -0.25 -0.71875 -0.25l-0.375 0l0 -0.515625zm15.3828125 0.421875q0.78125 -0.796875 1.4375 -0.796875q0.390625 0 0.640625 0.25q0.265625 0.25 0.265625 0.609375q0 0.296875 -0.1875 0.484375q-0.171875 0.1875 -0.40625 0.1875q-0.4375 0 -0.59375 -0.546875q-0.0625 -0.234375 -0.21875 -0.234375q-0.265625 0 -0.578125 0.359375q0.34375 0.453125 0.46875 0.796875q0.125 0.34375 0.125 0.734375q0 0.671875 -0.328125 1.203125q-0.328125 0.515625 -1.09375 0.921875q-0.765625 0.390625 -1.453125 0.390625l-0.859375 0q-0.90625 0 -1.203125 0.1875q-0.296875 0.1875 -0.296875 0.5625q0 0.3125 0.25 0.46875q0.234375 0.171875 0.90625 0.171875l1.9375 -0.046875q1.453125 0 2.09375 0.5q0.65625 0.4843769 0.65625 1.3437519q0 0.9375 -0.734375 1.578125q-1.03125 0.90625 -3.0625 0.90625q-1.671875 0 -2.484375 -0.625q-0.640625 -0.484375 -0.640625 -1.078125q0 -0.46875 0.40625 -0.859375q0.40625 -0.375 1.375 -0.5625q-0.765625 -0.1875 -1.15625 -0.546875q-0.390625 -0.3750019 -0.390625 -0.9062519q0 -0.5 0.3125 -0.875q0.3125 -0.375 1.09375 -0.640625q-0.65625 -0.359375 -1.0 -0.875q-0.328125 -0.53125 -0.328125 -1.203125q0 -1.0625 0.828125 -1.78125q0.84375 -0.71875 2.171875 -0.71875q0.546875 0 1.046875 0.15625q0.515625 0.15625 1.0 0.484375zm-2.0625 -0.140625q-0.6875 0 -1.140625 0.515625q-0.453125 0.515625 -0.453125 1.4375q0 0.984375 0.453125 1.53125q0.453125 0.53125 1.15625 0.53125q0.703125 0 1.140625 -0.515625q0.453125 -0.53125 0.453125 -1.515625q0 -0.921875 -0.453125 -1.453125q-0.453125 -0.53125 -1.15625 -0.53125zm0.46875 7.062502q-1.4375 0 -2.0625 0.390625q-0.609375 0.40625 -0.609375 0.96875q0 0.53125 0.46875 0.828125q0.609375 0.40625 1.734375 0.40625q1.34375 0 2.015625 -0.453125q0.6875 -0.4375 0.6875 -0.984375q0 -0.3125 -0.21875 -0.59375q-0.203125 -0.28125 -0.671875 -0.421875q-0.453125 -0.140625 -1.34375 -0.140625zm11.4375 -3.625002l-5.234375 0q0.03125 1.671875 0.625 2.359375q0.671875 0.7656269 1.703125 0.7656269q1.53125 0 2.46875 -1.7343769l0.5 0.21875q-1.140625 2.218752 -3.296875 2.218752q-1.46875 0 -2.46875 -1.0625019q-1.0 -1.0625 -1.0 -2.71875q0 -1.78125 0.984375 -2.875q0.984375 -1.109375 2.4375 -1.109375q1.0625 0 1.828125 0.546875q0.78125 0.546875 1.171875 1.578125q0.265625 0.71875 0.28125 1.8125zm-5.234375 -0.5625l3.171875 0q0.28125 0 0.4375 -0.1875q0.15625 -0.1875 0.15625 -0.65625q0 -0.859375 -0.546875 -1.453125q-0.53125 -0.609375 -1.25 -0.609375q-0.8125 0 -1.390625 0.734375q-0.5625 0.71875 -0.578125 2.171875z" fill-rule="nonzero"/><path fill="#000000" fill-opacity="0.0" d="m27.547245 54.279526l50.110233 0l0 224.72441l-50.110233 0z" fill-rule="evenodd"/><path stroke="#ff0000" stroke-width="2.0" stroke-linejoin="round" stroke-linecap="butt" d="m27.547245 54.279526l50.110233 0l0 224.72441l-50.110233 0z" fill-rule="evenodd"/><path fill="#000000" fill-opacity="0.0" d="m161.32677 55.434383l50.110245 0l0 181.95276l-50.110245 0z" fill-rule="evenodd"/><path stroke="#ff0000" stroke-width="2.0" stroke-linejoin="round" stroke-linecap="butt" d="m161.32677 55.434383l50.110245 0l0 181.95276l-50.110245 0z" fill-rule="evenodd"/><path fill="#000000" d="m181.30971 264.13516l0 0c0 -2.8440552 2.3055573 -5.149597 5.1496124 -5.149597l0 0c1.3657532 0 2.675583 0.5425415 3.6413116 1.5082703c0.965744 0.9657593 1.5082855 2.2755737 1.5082855 3.641327l0 0c0 2.8440552 -2.3055573 5.1496277 -5.149597 5.1496277l0 0c-2.8440552 0 -5.1496124 -2.3055725 -5.1496124 -5.1496277z" fill-rule="evenodd"/><path stroke="#000000" stroke-width="1.0" stroke-linejoin="round" stroke-linecap="butt" d="m181.30971 264.13516l0 0c0 -2.8440552 2.3055573 -5.149597 5.1496124 -5.149597l0 0c1.3657532 0 2.675583 0.5425415 3.6413116 1.5082703c0.965744 0.9657593 1.5082855 2.2755737 1.5082855 3.641327l0 0c0 2.8440552 -2.3055573 5.1496277 -5.149597 5.1496277l0 0c-2.8440552 0 -5.1496124 -2.3055725 -5.1496124 -5.1496277z" fill-rule="evenodd"/><path fill="#000000" fill-opacity="0.0" d="m234.93307 57.274452l13.065613 17.407318l0 77.95878l11.64566 15.515533l-11.078735 14.760208l0 78.71411l-13.632538 18.162628" fill-rule="evenodd"/><path stroke="#000000" stroke-width="1.0" stroke-linejoin="round" stroke-linecap="butt" d="m234.93307 57.274452l13.065613 17.407318l0 77.95878l11.64566 15.515533l-11.078735 14.760208l0 78.71411l-13.632538 18.162628" fill-rule="evenodd"/><path fill="#000000" fill-opacity="0.0" d="m292.91565 116.83071l0 99.62205l-30.425201 0l0 -99.62205z" fill-rule="evenodd"/><path fill="#000000" d="m282.4993 138.56752l1.125 0.53125l0 0.5l-4.65625 0.203125l0 -0.53125q1.96875 -0.515625 2.890625 -1.296875q1.171875 -0.96875 1.171875 -2.3125q0 -1.453125 -1.296875 -2.375q-1.296875 -0.90625 -4.390625 -0.90625q-2.609375 0 -3.96875 1.046875q-1.15625 0.890625 -1.15625 2.5q0 1.40625 0.890625 2.359375q0.90625 0.953125 2.734375 1.25l0 0.546875q-2.0625 -0.234375 -3.1875 -1.40625q-1.109375 -1.171875 -1.109375 -2.953125q0 -1.453125 0.734375 -2.65625q0.734375 -1.203125 2.09375 -1.9375q1.359375 -0.71875 2.984375 -0.71875q1.734375 0 3.25 0.75q1.515625 0.75 2.265625 1.90625q0.765625 1.171875 0.765625 2.515625q0 0.75 -0.265625 1.453125q-0.25 0.703125 -0.875 1.53125zm-3.109375 6.2734375q0 1.46875 -1.078125 2.46875q-1.0625 1.015625 -2.796875 1.015625q-1.203125 0 -2.0625 -0.453125q-0.84375 -0.453125 -1.34375 -1.28125q-0.484375 -0.828125 -0.484375 -1.796875q0 -1.421875 1.078125 -2.40625q1.078125 -0.984375 2.796875 -0.984375q1.734375 0 2.8125 0.984375q1.078125 1.0 1.078125 2.453125zm-0.5625 0q0 -0.875 -0.796875 -1.4375q-0.78125 -0.5625 -2.5 -0.5625q-1.734375 0 -2.546875 0.546875q-0.796875 0.5625 -0.796875 1.453125q0 0.90625 0.796875 1.46875q0.8125 0.578125 2.640625 0.578125q1.6875 0 2.4375 -0.5625q0.765625 -0.5625 0.765625 -1.484375zm4.578125 8.6875l0.125 2.859375l-10.015625 0q-0.578125 0 -0.828125 0.21875q-0.25 0.234375 -0.25 0.671875l0 0.515625l-0.59375 0l0 -2.5l1.5 -0.1875q-0.796875 -0.453125 -1.203125 -1.046875q-0.40625 -0.59375 -0.40625 -1.34375q0 -1.25 1.046875 -2.125q1.046875 -0.875 2.765625 -0.875q1.859375 0 2.96875 1.125q0.875 0.875 0.875 2.03125q0 0.703125 -0.359375 1.25q-0.34375 0.5625 -1.0625 0.984375l4.140625 0q0.328125 0 0.515625 -0.265625q0.1875 -0.25 0.1875 -0.78125l0 -0.53125l0.59375 0zm-4.671875 -0.453125q0 -0.84375 -0.703125 -1.34375q-0.6875 -0.484375 -2.328125 -0.484375q-1.796875 0 -2.53125 0.5q-0.71875 0.515625 -0.71875 1.3125q0 0.84375 0.8125 1.453125q0.8125 0.609375 2.390625 0.609375q1.484375 0 2.328125 -0.65625q0.75 -0.5625 0.75 -1.390625zm0.65625 8.953125q0 1.46875 -1.078125 2.46875q-1.0625 1.015625 -2.796875 1.015625q-1.203125 0 -2.0625 -0.453125q-0.84375 -0.453125 -1.34375 -1.28125q-0.484375 -0.828125 -0.484375 -1.796875q0 -1.421875 1.078125 -2.40625q1.078125 -0.984375 2.796875 -0.984375q1.734375 0 2.8125 0.984375q1.078125 1.0 1.078125 2.453125zm-0.5625 0q0 -0.875 -0.796875 -1.4375q-0.78125 -0.5625 -2.5 -0.5625q-1.734375 0 -2.546875 0.546875q-0.796875 0.5625 -0.796875 1.453125q0 0.90625 0.796875 1.46875q0.8125 0.578125 2.640625 0.578125q1.6875 0 2.4375 -0.5625q0.765625 -0.5625 0.765625 -1.484375zm0.34375 5.0l0.125 2.09375q-0.8125 0.171875 -1.5625 0.21875q0.859375 0.59375 1.203125 1.1875q0.359375 0.59375 0.359375 1.3125q0 0.75 -0.40625 1.234375q-0.390625 0.5 -1.28125 0.765625q0.84375 0.53125 1.265625 1.171875q0.421875 0.640625 0.421875 1.390625q0 1.0 -0.59375 1.5q-0.78125 0.640625 -2.015625 0.640625l-3.625 0q-0.328125 0 -0.453125 0.171875q-0.171875 0.21875 -0.171875 0.640625l0 0.375l-0.59375 0l0 -3.6875l0.59375 0l0 0.375q0 0.46875 0.15625 0.65625q0.15625 0.1875 0.46875 0.1875l3.625 0q0.8125 0 1.25 -0.40625q0.453125 -0.390625 0.453125 -1.046875q0 -0.484375 -0.265625 -0.890625q-0.25 -0.390625 -0.734375 -0.625q-0.703125 -0.328125 -1.1875 -0.328125l-3.140625 0q-0.328125 0 -0.484375 0.171875q-0.140625 0.171875 -0.140625 0.53125l0 0.5l-0.59375 0l0 -3.734375l0.59375 0l0 0.421875q0 0.40625 0.15625 0.59375q0.15625 0.203125 0.390625 0.203125l3.375 0q1.078125 0 1.5625 -0.390625q0.484375 -0.375 0.484375 -1.015625q0 -0.828125 -0.5625 -1.265625q-0.796875 -0.640625 -1.859375 -0.640625l-2.921875 0q-0.34375 0 -0.46875 0.15625q-0.15625 0.203125 -0.15625 0.65625l0 0.375l-0.59375 0l0 -3.6875l0.59375 0l0 0.546875q0 0.3125 0.15625 0.484375q0.15625 0.171875 0.390625 0.171875l4.796875 0q0.40625 0 0.59375 -0.203125q0.203125 -0.203125 0.25 -0.8125l0.546875 0zm-6.515625 21.507797l-0.4375 0.28125q-0.59375 -0.578125 -0.59375 -1.265625q0 -0.53125 0.28125 -0.90625q0.296875 -0.359375 1.03125 -0.625q-0.78125 -0.75 -1.046875 -1.3125q-0.265625 -0.5625 -0.265625 -1.34375q0 -1.125 0.484375 -1.71875q0.484375 -0.578125 1.25 -0.578125q1.140625 0 1.890625 1.328125q0.75 1.34375 1.0 3.578125l1.109375 0q0.59375 0 1.015625 -0.484375q0.421875 -0.46875 0.421875 -1.203125q0 -0.6875 -0.28125 -1.171875q-0.203125 -0.359375 -0.40625 -0.359375q-0.125 0 -0.375 0.1875q-0.3125 0.234375 -0.546875 0.234375q-0.359375 0 -0.578125 -0.234375q-0.21875 -0.21875 -0.21875 -0.59375q0 -0.390625 0.265625 -0.65625q0.265625 -0.25 0.671875 -0.25q0.78125 0 1.421875 0.859375q0.640625 0.875 0.640625 2.296875q0 1.296875 -0.5625 1.984375q-0.578125 0.6875 -1.390625 0.6875l-4.0 0q-0.53125 0 -0.78125 0.171875q-0.25 0.171875 -0.25 0.453125q0 0.296875 0.25 0.640625zm3.078125 -2.5625q-0.265625 -1.984375 -0.890625 -2.8125q-0.46875 -0.625 -1.328125 -0.625q-0.59375 0 -0.9375 0.3125q-0.34375 0.328125 -0.34375 0.84375q0 0.921875 0.703125 1.59375q0.703125 0.6875 1.75 0.6875l1.046875 0zm7.796875 5.6015625q0 0.359375 -0.265625 0.625q-0.265625 0.265625 -0.625 0.265625q-0.34375 0 -0.609375 -0.265625q-0.25 -0.25 -0.25 -0.609375q0 -0.359375 0.25 -0.625q0.265625 -0.265625 0.625 -0.265625q0.34375 0 0.609375 0.265625q0.265625 0.265625 0.265625 0.609375zm-4.359375 -2.015625l0.078125 2.90625l-6.296875 0q-0.25 0 -0.359375 0.125q-0.15625 0.171875 -0.15625 0.453125l0 0.828125l-0.59375 0l0 -4.15625l0.59375 0l0 0.765625q0 0.34375 0.15625 0.5q0.171875 0.171875 0.5 0.171875l4.609375 0q0.4375 0 0.65625 -0.25q0.21875 -0.25 0.21875 -0.75l0 -0.59375l0.59375 0zm0 5.1796875l0.140625 2.421875q-0.6875 0.15625 -1.609375 0.21875q0.796875 0.5 1.1875 1.15625q0.40625 0.671875 0.40625 1.515625q0 0.734375 -0.28125 1.21875q-0.28125 0.5 -0.90625 0.796875q-0.609375 0.296875 -1.375 0.296875l-3.5625 0q-0.40625 0 -0.578125 0.171875q-0.15625 0.1875 -0.15625 0.609375l0 0.515625l-0.59375 0l0 -3.859375l0.59375 0l0 0.359375q0 0.515625 0.15625 0.71875q0.171875 0.203125 0.5 0.203125l3.125 0q1.03125 0 1.515625 -0.3125q0.703125 -0.4375 0.703125 -1.328125q0 -0.875 -0.71875 -1.46875q-0.703125 -0.59375 -1.84375 -0.59375l-2.703125 0q-0.40625 0 -0.578125 0.1875q-0.15625 0.1875 -0.15625 0.609375l0 0.5l-0.59375 0l0 -3.875l0.59375 0l0 0.515625q0 0.375 0.15625 0.578125q0.15625 0.203125 0.390625 0.203125l4.71875 0q0.46875 0 0.703125 -0.265625q0.25 -0.25 0.25 -0.71875l0 -0.375l0.515625 0z" fill-rule="nonzero"/></g></svg>