<?xml version="1.0" encoding="UTF-8" standalone="no"?>
<!-- Created with Inkscape (http://www.inkscape.org/) -->
<svg
   xmlns:dc="http://purl.org/dc/elements/1.1/"
   xmlns:cc="http://web.resource.org/cc/"
   xmlns:rdf="http://www.w3.org/1999/02/22-rdf-syntax-ns#"
   xmlns:svg="http://www.w3.org/2000/svg"
   xmlns="http://www.w3.org/2000/svg"
   xmlns:sodipodi="http://inkscape.sourceforge.net/DTD/sodipodi-0.dtd"
   xmlns:inkscape="http://www.inkscape.org/namespaces/inkscape"
   id="svg2"
   height="300"
   width="500"
   y="0"
   x="0"
   version="1"
   sodipodi:version="0.32"
   inkscape:version="0.43"
   sodipodi:docname="Liczby_rzeczywiste-diagram.svg"
   sodipodi:docbase="/home/piotr">
  <metadata
     id="metadata19">
    <rdf:RDF>
      <cc:Work
         rdf:about="">
        <dc:format>image/svg+xml</dc:format>
        <dc:type
           rdf:resource="http://purl.org/dc/dcmitype/StillImage" />
      </cc:Work>
    </rdf:RDF>
  </metadata>
  <sodipodi:namedview
     inkscape:cy="150.03946"
     inkscape:cx="271.7876"
     inkscape:zoom="1.3207965"
     inkscape:window-height="689"
     inkscape:window-width="1016"
     inkscape:pageshadow="2"
     inkscape:pageopacity="0.0"
     borderopacity="1.0"
     bordercolor="#666666"
     pagecolor="#ffffff"
     id="base"
     inkscape:window-x="0"
     inkscape:window-y="0"
     inkscape:current-layer="svg2" />
  <desc
     id="desc1330">Set intersection</desc>
  <defs
     id="defs1332">
    <linearGradient
       id="linearGradient2243">
      <stop
         style="stop-color:#fff3ff;stop-opacity:1;"
         offset="0"
         id="stop2245" />
      <stop
         style="stop-color:#000000;stop-opacity:0;"
         offset="1"
         id="stop2247" />
    </linearGradient>
    <mask
       id="mc1">
      <circle
         id="circle1335"
         style="fill:#787dcd"
         r="120"
         cy="150"
         cx="150" />
    </mask>
    <circle
       id="c1"
       style="opacity:0.20000000;fill:#968cb4;stroke:none"
       r="120"
       cy="150"
       cx="150" />
    <circle
       id="c2"
       style="fill:#787dcd"
       r="120"
       cy="150"
       cx="150" />
    <circle
       id="ic1c2"
       style="fill:#eae8f0"
       r="120"
       cy="150"
       cx="350" />
  </defs>
  <rect
     id="rect1340"
     style="fill:#ffffff;stroke:#000000"
     y="0"
     x="0"
     height="300"
     width="500" />
  <path
     sodipodi:type="arc"
     style="opacity:1;fill:#ffff00;fill-opacity:0.16822432;fill-rule:nonzero;stroke:#000000;stroke-width:1.3002975;stroke-miterlimit:4;stroke-dasharray:none;stroke-opacity:1"
     id="path2219"
     sodipodi:cx="222.72253"
     sodipodi:cy="147.71805"
     sodipodi:rx="187.70583"
     sodipodi:ry="113.19354"
     d="M 410.42836 147.71805 A 187.70583 113.19354 0 1 1  35.016708,147.71805 A 187.70583 113.19354 0 1 1  410.42836 147.71805 z"
     transform="matrix(1.155643,0,0,1.042901,-5.348946,-11.22325)" />
  <path
     sodipodi:type="arc"
     style="opacity:1;fill:#01ff00;fill-opacity:0.25233644;fill-rule:nonzero;stroke:#000000;stroke-width:1.29999995;stroke-miterlimit:4;stroke-dasharray:none;stroke-opacity:1"
     id="path2253"
     sodipodi:cx="176.30504"
     sodipodi:cy="153.01126"
     sodipodi:rx="67.997559"
     sodipodi:ry="69.626244"
     d="M 244.3026 153.01126 A 67.997559 69.626244 0 1 1  108.30748,153.01126 A 67.997559 69.626244 0 1 1  244.3026 153.01126 z"
     transform="matrix(1.33217,0,0,1.127471,119.7775,-31.71977)" />
  <path
     sodipodi:type="arc"
     style="opacity:1;fill:#008fff;fill-opacity:0.25233644;fill-rule:nonzero;stroke:#000000;stroke-width:1.29999995;stroke-miterlimit:4;stroke-dasharray:none;stroke-opacity:1"
     id="path2255"
     sodipodi:cx="176.30504"
     sodipodi:cy="153.01126"
     sodipodi:rx="67.997559"
     sodipodi:ry="69.626244"
     d="M 244.3026 153.01126 A 67.997559 69.626244 0 1 1  108.30748,153.01126 A 67.997559 69.626244 0 1 1  244.3026 153.01126 z"
     transform="matrix(0.608533,0,0,0.59443,252.6518,40.47679)" />
  <path
     style="fill:#000000"
     d="M 236.51633,234.26849 C 237.73641,233.77808 237.8164,233.40882 237.8164,228.26682 C 237.8164,223.65819 237.65576,222.69415 236.80523,222.19876 C 236.05346,221.76089 236.92282,221.6053 240.19417,221.59224 C 243.78792,221.57789 244.87329,221.79414 246.11673,222.77223 C 248.44952,224.6072 247.80414,227.68667 244.90011,228.57745 C 244.44255,228.7178 245.01393,229.89425 246.48021,231.8308 L 248.77706,234.86431 L 246.89499,234.86431 C 245.36612,234.86431 244.82146,234.5119 243.99267,232.98643 C 243.43154,231.95359 242.46814,230.4585 241.85179,229.66402 L 240.73115,228.21949 L 240.7183,231.21063 C 240.70812,233.58017 240.91559,234.25668 241.71662,234.46601 C 242.27276,234.61134 241.0377,234.74394 238.97202,234.76066 C 236.18199,234.78324 235.55055,234.65669 236.51633,234.26849 z M 240.12764,228.21949 C 240.12764,223.2118 239.97631,222.15248 239.26093,222.15248 C 238.54554,222.15248 238.39421,223.2118 238.39421,228.21949 C 238.39421,233.22718 238.54554,234.2865 239.26093,234.2865 C 239.97631,234.2865 240.12764,233.22718 240.12764,228.21949 z M 245.26206,231.5419 C 242.91992,228.07621 243.08,228.25249 242.65798,228.67451 C 242.1297,229.20279 245.48859,234.28426 246.36686,234.28547 C 246.82627,234.2861 246.39818,233.22302 245.26206,231.5419 z M 243.47894,227.23721 C 244.44456,226.27159 244.3458,223.59358 243.31296,222.7364 C 241.75559,221.44389 240.70545,222.4813 240.70545,225.3123 C 240.70545,227.4484 240.89699,227.93058 241.74551,227.93058 C 242.31755,227.93058 243.09759,227.61857 243.47894,227.23721 z M 246.15338,227.0226 C 246.65277,226.5232 247.06137,225.76173 247.06137,225.33044 C 247.06137,224.51604 245.54204,222.73029 244.84914,222.73029 C 244.63121,222.73029 244.54595,223.90036 244.65969,225.33044 C 244.77343,226.76052 244.95174,227.93058 245.05594,227.93058 C 245.16014,227.93058 245.65399,227.52199 246.15338,227.0226 z "
     id="path2424" />
  <path
     style="fill:none;fill-opacity:0.75;fill-rule:evenodd;stroke:#000000;stroke-width:1.4;stroke-linecap:butt;stroke-linejoin:miter;stroke-opacity:1;stroke-miterlimit:4;stroke-dasharray:none"
     d="M 213.36816,27.594122 C 213.36816,27.594122 237.62783,62.192999 242.59668,219.90997"
     id="path1372"
     sodipodi:nodetypes="cs" />
  <path
     style="fill:none;fill-opacity:0.75;fill-rule:evenodd;stroke:#000000;stroke-width:1.42;stroke-linecap:butt;stroke-linejoin:miter;stroke-opacity:1;stroke-miterlimit:4;stroke-dasharray:none"
     d="M 242.59668,238.63498 C 244.64268,252.94952 236.75098,260.81893 236.75098,260.81893"
     id="path1374"
     sodipodi:nodetypes="cc" />
  <path
     style="fill:#000000"
     d="M 350.29368,119.08324 C 351.02044,118.65994 351.15871,117.83666 351.15871,113.93264 C 351.15871,110.02862 351.02044,109.20534 350.29368,108.78204 C 349.60525,108.38107 349.84949,108.27514 351.49001,108.26317 C 353.46128,108.2488 353.65449,108.38857 355.91051,111.46112 C 357.20803,113.22826 358.33796,114.6741 358.42146,114.6741 C 358.50496,114.6741 358.57328,113.35579 358.57328,111.74452 C 358.57328,109.37009 358.40935,108.7721 357.70824,108.58888 C 357.23248,108.46455 357.67735,108.33702 358.69685,108.30548 C 359.71635,108.27395 360.55049,108.47058 360.55049,108.74245 C 360.55049,109.01431 360.32806,109.23675 360.05619,109.23675 C 359.75804,109.23675 359.56188,111.29635 359.56188,114.42695 C 359.56188,117.28155 359.36181,119.61714 359.11728,119.61714 C 358.87275,119.61714 357.14887,117.56884 355.28642,115.06536 L 351.90017,110.51358 L 351.75376,114.43742 C 351.63191,117.70283 351.75145,118.46662 352.46611,118.98919 C 353.21315,119.53544 353.07141,119.61518 351.37677,119.60211 C 349.81334,119.59005 349.59947,119.48759 350.29368,119.08324 z M 358.49135,115.67879 C 354.86832,110.64484 353.2496,108.76904 352.51805,108.75686 C 352.04228,108.74893 351.65302,108.85374 351.65302,108.98976 C 351.65302,109.12579 353.26568,111.27872 355.23672,113.77405 C 357.72115,116.91934 358.87111,118.04787 358.98566,117.4531 C 359.07653,116.98124 358.85409,116.1828 358.49135,115.67879 z "
     id="path2469" />
  <path
     style="fill:#000000"
     d="M 305.56144,92.961266 C 305.56144,92.821036 307.10628,90.149046 308.99442,87.023516 C 310.88256,83.897986 312.2922,81.205546 312.12696,81.040306 C 311.44232,80.355666 308.30302,81.601406 307.20942,82.991696 L 306.03248,84.487936 L 306.21864,82.526846 L 306.4048,80.565756 L 311.32444,80.403306 C 314.03023,80.313956 316.24407,80.406156 316.24407,80.608196 C 316.24407,80.810236 314.72601,83.488456 312.87061,86.559796 C 311.0152,89.631136 309.49714,92.262686 309.49714,92.407686 C 309.49714,92.552686 310.87959,92.613466 312.56924,92.542766 C 314.25889,92.472056 315.43582,92.278406 315.18464,92.112416 C 314.93345,91.946436 315.19424,91.051596 315.76417,90.123896 L 316.80039,88.437166 L 316.80335,89.937356 C 316.80954,93.071646 316.54668,93.216236 310.8426,93.216236 C 307.93796,93.216236 305.56144,93.101506 305.56144,92.961266 z M 311.06799,88.015486 C 315.27395,80.892266 315.29459,80.846876 314.3288,80.846876 C 313.67596,80.846876 310.70085,85.379796 306.85615,92.232316 C 306.72603,92.464236 307.00422,92.653996 307.47436,92.653996 C 307.94886,92.653996 309.54764,90.590356 311.06799,88.015486 z "
     id="path2514" />
  <path
     style="fill:#000000"
     d="M 245.95873,46.81413 C 244.5169,45.622673 243.15623,44.647845 242.93502,44.647845 C 242.2232,44.647845 240.8803,41.502876 240.8803,39.835854 C 240.8803,35.55749 243.72268,33.062289 248.15935,33.445906 C 250.31807,33.63256 251.129,34.006259 252.35653,35.380097 C 254.56111,37.84746 254.49787,41.19632 252.19719,43.816644 C 251.27274,44.869533 250.11514,45.739096 249.62473,45.749005 C 248.24105,45.776965 251.01495,47.895303 252.44869,47.905566 C 253.3952,47.912341 253.45855,48.009937 252.79487,48.438844 C 251.01412,49.589649 248.63252,49.023624 245.95873,46.81413 z M 249.01274,47.009278 C 247.82623,46.010899 247.14229,45.75122 246.74518,46.148332 C 246.34807,46.545444 246.64378,46.970091 247.7256,47.556215 C 250.16692,48.8789 250.87639,48.577431 249.01274,47.009278 z M 249.21469,44.35965 C 251.07984,42.494504 250.9923,36.647304 249.07047,34.725466 C 247.56862,33.223611 245.49187,33.861579 244.72541,36.060254 C 242.79272,41.604386 246.01425,47.560088 249.21469,44.35965 z M 244.14878,43.600306 C 243.4268,42.251283 243.42243,36.762727 244.14226,35.417717 C 244.59271,34.576048 244.5383,34.443019 243.85144,34.706592 C 242.71104,35.144206 241.42141,37.749881 241.42389,39.611416 C 241.42612,41.281173 243.24229,44.647845 244.14082,44.647845 C 244.53514,44.647845 244.53758,44.326791 244.14878,43.600306 z M 252.54411,42.442826 C 253.81149,39.991968 253.538,37.843117 251.70573,35.855855 L 250.07503,34.087204 L 250.62259,35.611782 C 251.33109,37.584458 251.32725,42.259219 250.61605,43.588118 C 250.1656,44.429787 250.22,44.562817 250.90687,44.299243 C 251.37157,44.120918 252.10833,43.285531 252.54411,42.442826 z "
     id="path2559" />
  <path
     style="fill:#000000"
     d="M 153.86253,93.99259 C 152.17643,89.2874 150.93398,85.3006 151.10155,85.13304 C 151.26912,84.96547 151.52763,85.16209 151.67603,85.56996 C 151.82443,85.97784 152.28611,87.26975 152.70199,88.44086 C 153.11786,89.61198 154.43222,93.26506 155.6228,96.55882 C 156.81338,99.85258 157.59414,102.54748 157.35783,102.54748 C 157.12153,102.54748 155.54864,98.69778 153.86253,93.99259 z M 164.40788,99.35353 C 162.99067,98.18241 161.65323,97.22423 161.4358,97.22423 C 160.73613,97.22423 159.41615,94.13295 159.41615,92.49439 C 159.41615,88.28907 162.21001,85.83647 166.57093,86.21354 C 168.6928,86.397 169.48988,86.76432 170.69645,88.11471 C 172.8634,90.53995 172.80123,93.83163 170.53984,96.40722 C 169.63117,97.44213 168.49332,98.29685 168.01129,98.30659 C 166.65124,98.33407 169.37778,100.41624 170.78703,100.42633 C 171.71739,100.43299 171.77966,100.52892 171.1273,100.9505 C 169.37697,102.08166 167.03602,101.5253 164.40788,99.35353 z M 167.40975,99.54534 C 166.2435,98.56401 165.57124,98.30876 165.1809,98.6991 C 164.79057,99.08943 165.08124,99.50683 166.14459,100.08294 C 168.54422,101.38305 169.24158,101.08672 167.40975,99.54534 z M 167.60826,96.94095 C 169.44156,95.10765 169.35552,89.36028 167.46649,87.47125 C 165.99028,85.99504 163.949,86.62211 163.19562,88.78325 C 161.29593,94.23273 164.46246,100.08675 167.60826,96.94095 z M 162.62883,96.19457 C 161.91918,94.86858 161.91488,89.47373 162.62242,88.15168 C 163.06518,87.32439 163.0117,87.19363 162.33657,87.4527 C 161.21563,87.88284 159.94802,90.44403 159.95047,92.27378 C 159.95266,93.91503 161.73782,97.22423 162.62101,97.22423 C 163.0086,97.22423 163.011,96.90865 162.62883,96.19457 z M 170.88083,95.05685 C 172.12658,92.64784 171.85775,90.53567 170.05677,88.58234 L 168.45391,86.84389 L 168.99212,88.34243 C 169.68852,90.28143 169.68475,94.87638 168.98569,96.18259 C 168.54293,97.00989 168.5964,97.14065 169.27154,96.88158 C 169.72831,96.7063 170.45249,95.88517 170.88083,95.05685 z M 137.99007,97.73996 C 139.11411,97.28816 139.1878,96.94796 139.1878,92.21074 C 139.1878,87.96491 139.0398,87.07675 138.25623,86.62036 C 137.56364,86.21696 138.36456,86.07362 141.37839,86.06159 C 144.68924,86.04837 145.68916,86.24759 146.83472,87.14869 C 148.98388,88.83921 148.3893,91.67627 145.71387,92.49692 C 145.29234,92.62622 145.81874,93.71006 147.16959,95.49417 L 149.28563,98.28888 L 147.55172,98.28888 C 146.1432,98.28888 145.64141,97.96421 144.87787,96.55882 C 144.36091,95.60729 143.47335,94.2299 142.90552,93.49795 L 141.8731,92.16714 L 141.86126,94.92281 C 141.85188,97.10582 142.04302,97.72908 142.78099,97.92193 C 143.29336,98.05583 142.15551,98.17798 140.25245,98.19338 C 137.68205,98.21419 137.10031,98.0976 137.99007,97.73996 z M 141.3171,92.16714 C 141.3171,87.55365 141.17768,86.57773 140.51861,86.57773 C 139.85954,86.57773 139.72012,87.55365 139.72012,92.16714 C 139.72012,96.78062 139.85954,97.75655 140.51861,97.75655 C 141.17768,97.75655 141.3171,96.78062 141.3171,92.16714 z M 146.04733,95.22801 C 143.88956,92.03514 144.03705,92.19754 143.64824,92.58634 C 143.16155,93.07303 146.25603,97.75449 147.06517,97.7556 C 147.48841,97.75618 147.09402,96.77679 146.04733,95.22801 z M 144.40458,91.26219 C 145.29419,90.37258 145.2032,87.90538 144.25167,87.11568 C 142.81689,85.92492 141.84942,86.88066 141.84942,89.48881 C 141.84942,91.45675 142.02588,91.90098 142.80761,91.90098 C 143.33461,91.90098 144.05325,91.61352 144.40458,91.26219 z M 146.86849,91.06446 C 147.32857,90.60438 147.705,89.90286 147.705,89.50551 C 147.705,88.75523 146.30527,87.11005 145.66692,87.11005 C 145.46614,87.11005 145.3876,88.18801 145.49238,89.50551 C 145.59717,90.82302 145.76145,91.90098 145.85744,91.90098 C 145.95344,91.90098 146.40841,91.52455 146.86849,91.06446 z "
     id="path2619"
     sodipodi:nodetypes="csssssccssssssssccssccssccsssscccccssccssssscccscccssccsssccssccsssccssssc" />
</svg>
